<?xml version="1.0" encoding="UTF-8" standalone="no"?>
<!-- Created with Inkscape (http://www.inkscape.org/) -->

<svg
   width="88.271126mm"
   height="41.160305mm"
   viewBox="0 0 88.271126 41.160305"
   version="1.1"
   id="svg1"
   xml:space="preserve"
   inkscape:version="1.3 (0e150ed6c4, 2023-07-21)"
   xmlns:inkscape="http://www.inkscape.org/namespaces/inkscape"
   xmlns:sodipodi="http://sodipodi.sourceforge.net/DTD/sodipodi-0.dtd"
   xmlns="http://www.w3.org/2000/svg"
   xmlns:svg="http://www.w3.org/2000/svg"><sodipodi:namedview
     id="namedview1"
     pagecolor="#ffffff"
     bordercolor="#666666"
     borderopacity="1.0"
     inkscape:showpageshadow="2"
     inkscape:pageopacity="0.0"
     inkscape:pagecheckerboard="0"
     inkscape:deskcolor="#d1d1d1"
     inkscape:document-units="mm"
     showguides="true"
     inkscape:zoom="0.72782688"
     inkscape:cx="542.0245"
     inkscape:cy="689.03748"
     inkscape:window-width="1920"
     inkscape:window-height="1094"
     inkscape:window-x="-11"
     inkscape:window-y="-11"
     inkscape:window-maximized="1"
     inkscape:current-layer="layer1" /><defs
     id="defs1" /><g
     inkscape:label="Layer 1"
     inkscape:groupmode="layer"
     id="layer1"
     transform="translate(-119.94365,-67.072584)"><path
       style="fill:#000000"
       d="m 127.06335,108.13648 c -0.49093,-0.1888 -0.88125,-0.76032 -0.88125,-1.29035 0,-0.48655 0.3211,-0.99314 0.77984,-1.23034 0.2189,-0.11319 0.32356,-0.13428 0.65124,-0.13123 0.26539,0.002 0.39811,-0.0164 0.41443,-0.0589 0.0132,-0.0344 0.41116,-0.65403 0.88435,-1.37695 0.68777,-1.05073 2.28682,-3.51869 5.43342,-8.385853 0.0694,-0.10729 0.0667,-0.12304 -0.0327,-0.19263 -0.1509,-0.10569 -0.40393,-0.48544 -0.49529,-0.74332 -0.0421,-0.11897 -0.0768,-0.37767 -0.0769,-0.5749 -4.9e-4,-0.62333 0.25565,-1.11306 0.76295,-1.45877 l 0.23834,-0.16242 -0.56051,-1.90493 -0.56052,-1.90493 -0.50854,0.001 c -0.45404,10e-4 -0.53914,-0.0137 -0.79406,-0.13892 -0.33965,-0.1668 -0.72107,-0.55724 -0.86886,-0.88941 -0.15814,-0.35541 -0.17851,-0.91957 -0.0471,-1.3055 0.057,-0.16752 0.088,-0.32001 0.0688,-0.33886 -0.0192,-0.0189 -1.6551,-0.89406 -3.6354,-1.9449 l -3.60054,-1.91061 -0.19341,0.22627 c -0.88443,1.03469 -2.56052,1.06645 -3.48271,0.066 -0.45932,-0.4983 -0.64305,-1.01744 -0.61192,-1.72906 0.0178,-0.40674 0.0435,-0.51279 0.20801,-0.85929 0.47112,-0.99203 1.52311,-1.51936 2.58535,-1.29594 0.41927,0.0882 0.78216,0.28366 1.12907,0.60818 l 0.31861,0.29804 1.49197,-0.61353 c 0.82059,-0.33745 4.24463,-1.7383 7.60899,-3.11301 3.36435,-1.37471 7.81025,-3.19145 9.87976,-4.0372 l 3.76276,-1.53774 0.0262,-0.28884 c 0.0307,-0.33897 0.16518,-0.62391 0.40104,-0.85 0.53907,-0.51673 1.4548,-0.42584 1.88405,0.187 l 0.0734,0.10479 1.16192,-0.20689 c 0.63905,-0.1138 1.19881,-0.21771 1.2439,-0.23092 0.0604,-0.0177 0.0887,-0.1082 0.1076,-0.34316 0.0698,-0.86951 0.75893,-1.50587 1.63076,-1.50587 0.63306,0 1.14199,0.30303 1.44936,0.86298 0.16741,0.30499 0.18116,0.36263 0.18153,0.76146 3.3e-4,0.35441 -0.0217,0.47683 -0.12322,0.68531 -0.068,0.1396 -0.12504,0.26738 -0.12677,0.28395 -0.002,0.0166 0.26275,0.30767 0.58772,0.64687 l 0.59085,0.61672 0.24675,-0.11048 c 0.52562,-0.23537 1.20382,-0.0947 1.57356,0.32644 l 0.15011,0.17097 1.06364,-0.36956 c 0.58501,-0.20327 1.63764,-0.55396 2.33919,-0.77932 l 1.27554,-0.40976 0.0221,-0.42084 c 0.0372,-0.70913 0.42413,-1.37742 1.03048,-1.77989 0.54866,-0.36418 1.17497,-0.49248 1.78369,-0.3654 0.91907,0.19187 1.58777,0.79412 1.85364,1.66942 0.0879,0.28955 0.10291,0.43906 0.0819,0.81831 -0.0148,0.26754 -0.0633,0.55627 -0.11451,0.68187 -0.0488,0.11982 -0.0802,0.22591 -0.0698,0.23577 0.0105,0.01 3.73776,2.36354 8.28286,5.23041 l 8.26381,5.21249 0.21371,-0.20925 c 0.29964,-0.29339 0.83889,-0.5472 1.30513,-0.61429 0.70845,-0.10195 1.46035,0.15011 1.9793,0.66352 0.50598,0.50057 0.74031,1.11478 0.70349,1.84394 -0.016,0.31684 -0.005,0.3946 0.0574,0.41346 0.0424,0.0128 2.70416,0.72182 5.91496,1.57566 3.2108,0.85385 6.66714,1.78242 7.68075,2.0635 1.01362,0.28108 1.84741,0.50278 1.85287,0.49266 0.005,-0.0101 0.0764,-0.15128 0.15755,-0.31371 0.59363,-1.18759 2.00386,-1.66216 3.20278,-1.07779 0.83337,0.40619 1.3471,1.2193 1.344,2.12722 -0.002,0.65584 -0.18769,1.15632 -0.59753,1.61261 -0.53091,0.59108 -1.14062,0.83772 -1.96434,0.79464 -0.42654,-0.0223 -0.53024,-0.0475 -0.85221,-0.20677 -0.45465,-0.22494 -0.7328,-0.45987 -0.97314,-0.82196 -0.28009,-0.42198 -0.39404,-0.79018 -0.40194,-1.29879 l -0.007,-0.43525 -1.75135,-0.44758 c -0.96324,-0.24616 -4.44453,-1.16393 -7.73621,-2.03947 -3.29168,-0.87555 -6.01532,-1.5919 -6.05253,-1.5919 -0.0372,0 -0.11181,0.0857 -0.16578,0.19036 -0.22654,0.43948 -0.76414,0.89593 -1.25031,1.06159 -0.12501,0.0426 -0.2273,0.10677 -0.2273,0.1426 0,0.11491 -0.13816,0.185 -0.42253,0.21435 -0.25564,0.0264 -0.28379,0.0186 -0.36114,-0.0994 -0.0604,-0.0923 -0.14685,-0.13747 -0.30917,-0.16182 -0.35348,-0.053 -0.89274,-0.35112 -1.20558,-0.66646 -0.64554,-0.65072 -0.85671,-1.61677 -0.54434,-2.49034 0.0585,-0.16366 0.11101,-0.31319 0.11665,-0.33229 0.006,-0.0191 -3.70051,-2.3761 -8.23589,-5.23778 l -8.24615,-5.20304 -0.3055,0.28284 c -0.16802,0.15556 -0.44198,0.34738 -0.6088,0.42627 -0.51685,0.24443 -0.85368,0.28126 -1.69574,0.18541 -0.1096,-0.0125 -0.23138,0.2719 -1.98354,4.63158 -1.02672,2.55468 -2.23395,5.53516 -2.68272,6.62329 l -0.81595,1.97841 0.24084,0.13755 c 1.26191,0.72071 1.17876,2.53126 -0.14363,3.12741 -0.15691,0.0707 -0.29322,0.13506 -0.30291,0.14293 -0.01,0.008 0.25223,1.29514 0.58205,2.86061 l 0.59967,2.84629 0.33169,0.001 c 0.22289,7.5e-4 0.40663,0.035 0.56013,0.1044 0.92381,0.41768 1.10373,1.66719 0.33286,2.31156 l -0.2143,0.17913 0.19596,0.37398 0.19597,0.37397 0.21432,-0.0973 c 0.43597,-0.19792 0.98593,-0.10724 1.3441,0.2216 0.28835,0.26475 0.41595,0.53723 0.41739,0.89131 0.002,0.41622 -0.0933,0.66139 -0.36011,0.92934 -0.63117,0.633873 -1.63361,0.45566 -2.05341,-0.36505 -0.13179,-0.25763 -0.12824,-0.77744 0.007,-1.04822 l 0.10531,-0.21063 -0.24942,-0.46199 -0.24942,-0.46199 h -0.24027 c -0.7421,0 -1.31054,-0.53067 -1.36365,-1.27306 -0.0319,-0.44574 0.0731,-0.74025 0.38149,-1.06993 l 0.22371,-0.23917 -0.56619,-2.68117 c -0.3114,-1.47465 -0.58878,-2.78812 -0.6164,-2.91884 -0.0495,-0.23433 -0.0538,-0.23844 -0.30854,-0.29306 -0.5587,-0.11982 -1.00005,-0.47673 -1.25078,-1.01147 -0.11261,-0.24016 -0.1334,-0.35355 -0.1314,-0.71678 0.003,-0.53648 0.15281,-0.88538 0.53303,-1.24103 0.32275,-0.30189 0.62935,-0.43741 1.08179,-0.47813 l 0.35762,-0.0322 0.68084,-1.75134 c 0.37446,-0.96324 1.56956,-3.96718 2.65579,-6.67541 l 1.97495,-4.92407 -0.11513,-0.0761 c -0.40277,-0.26639 -0.90724,-0.89568 -0.97865,-1.22079 -0.0181,-0.0824 -0.0509,-0.14983 -0.0729,-0.14983 -0.022,0 -0.56272,0.16941 -1.2016,0.37646 -1.15158,0.37322 -2.29621,0.73184 -2.99829,0.93938 l -0.36455,0.10777 4.2e-4,0.36692 c 5e-4,0.43081 -0.0844,0.664 -0.34773,0.95552 -0.86301,0.95525 -2.45291,0.26256 -2.33679,-1.01809 0.0144,-0.1587 0.0717,-0.37826 0.12727,-0.48792 l 0.1011,-0.19938 -0.59042,-0.62418 -0.59041,-0.62417 -0.32996,0.16624 c -0.29167,0.14695 -0.3771,0.16612 -0.73608,0.16516 -0.30452,-8.1e-4 -0.46601,-0.0282 -0.64557,-0.10957 -0.28739,-0.1302 -0.71563,-0.51827 -0.80199,-0.72676 -0.0343,-0.0827 -0.0974,-0.15036 -0.14022,-0.15036 -0.0732,0 -2.04342,0.32976 -2.27582,0.3809 -0.0899,0.0198 -0.1114,0.0711 -0.13396,0.31996 -0.0459,0.50658 -0.29835,0.86784 -0.74883,1.07176 -0.48195,0.21816 -1.12891,0.0745 -1.45699,-0.32352 l -0.15533,-0.18844 -10.37452,4.2379 c -5.70599,2.33084 -10.8156,4.41661 -11.35468,4.63503 -0.88466,0.35845 -0.97699,0.40717 -0.94769,0.50003 0.19479,0.61729 0.21845,0.99516 0.0935,1.49336 -0.0456,0.182 -0.0628,0.33781 -0.0381,0.34624 0.0247,0.008 1.68213,0.88446 3.68317,1.94673 l 3.63826,1.93141 0.2236,-0.17067 c 0.67935,-0.51856 1.77216,-0.41477 2.34839,0.22304 0.32114,0.35547 0.45413,0.70949 0.45541,1.21231 9.8e-4,0.38778 -0.0162,0.4677 -0.16607,0.77212 -0.10994,0.22332 -0.25455,0.416 -0.42245,0.56287 l -0.25529,0.22332 0.43869,1.44122 c 0.24128,0.79267 0.5066,1.66394 0.58961,1.93616 l 0.15093,0.49494 h 0.32588 c 0.67405,0 1.292,0.40216 1.57632,1.02586 0.12074,0.26485 0.14592,0.3889 0.14748,0.72656 0.002,0.35915 -0.0176,0.44681 -0.16359,0.7433 -0.3071,0.62381 -0.8612,0.97759 -1.53511,0.98015 -0.2094,7.9e-4 -0.46068,-0.0165 -0.5584,-0.0384 l -0.17767,-0.0398 -2.25898,3.48515 c -1.24244,1.916833 -2.68718,4.146443 -3.21054,4.954693 l -0.95157,1.46953 0.14945,0.12575 c 0.0822,0.0692 0.21343,0.25606 0.29163,0.41531 0.27865,0.56743 0.14845,1.21654 -0.32817,1.63607 -0.3923,0.34532 -0.92149,0.43823 -1.415,0.24843 z"
       id="path10" /></g></svg>
