<?xml version="1.0" encoding="UTF-8" standalone="no"?>
<!-- Created with Inkscape (http://www.inkscape.org/) -->

<svg
   width="129.9976mm"
   height="65.524376mm"
   viewBox="0 0 129.9976 65.524376"
   version="1.1"
   id="svg1"
   xml:space="preserve"
   inkscape:version="1.3 (0e150ed6c4, 2023-07-21)"
   xmlns:inkscape="http://www.inkscape.org/namespaces/inkscape"
   xmlns:sodipodi="http://sodipodi.sourceforge.net/DTD/sodipodi-0.dtd"
   xmlns="http://www.w3.org/2000/svg"
   xmlns:svg="http://www.w3.org/2000/svg"><sodipodi:namedview
     id="namedview1"
     pagecolor="#ffffff"
     bordercolor="#666666"
     borderopacity="1.0"
     inkscape:showpageshadow="2"
     inkscape:pageopacity="0.0"
     inkscape:pagecheckerboard="0"
     inkscape:deskcolor="#d1d1d1"
     inkscape:document-units="mm"
     showguides="true"
     inkscape:zoom="0.72782688"
     inkscape:cx="542.0245"
     inkscape:cy="689.03748"
     inkscape:window-width="1920"
     inkscape:window-height="1094"
     inkscape:window-x="-11"
     inkscape:window-y="-11"
     inkscape:window-maximized="1"
     inkscape:current-layer="layer1" /><defs
     id="defs1" /><g
     inkscape:label="Layer 1"
     inkscape:groupmode="layer"
     id="layer1"
     transform="translate(-6.8061358,-17.920894)"><path
       style="fill:#000000"
       d="m 132.04238,83.183565 c -2.56213,-1.02166 -3.04471,-4.23753 -0.90106,-6.00451 l 0.91225,-0.75195 -1.60522,-6.99034 c -1.95267,-8.50342 -1.77633,-7.91637 -2.37793,-7.91637 -0.91591,0 -1.89545,-1.11356 -1.92595,-2.18945 l -0.0279,-0.98394 -14.13531,-7.56183 -14.135301,-7.56182 -0.82738,0.7824 c -0.45507,0.43031 -1.10334,0.92424 -1.44062,1.09762 -0.86107,0.44263 -3.29159,0.39249 -4.21888,-0.087 -1.6142,-0.83474 -2.96575,-3.01529 -2.97199,-4.79491 -0.002,-0.46402 -0.46599,-0.63472 -3.771786,-1.38647 -10.134333,-2.30458 -27.490889,-6.25627 -33.403266,-7.60516 -3.638021,-0.83 -9.948333,-2.265 -14.022916,-3.18887 -16.345553,-3.70622 -22.773792,-5.17523 -23.172986,-5.2956 -0.264554,-0.0798 -0.530567,0.11897 -0.722208,0.53957 -0.166864,0.36623 -0.692771,0.90327 -1.168681,1.19344 -2.3320003,1.42182 -5.3191103,-0.28669 -5.3191103,-3.04233 0,-1.84336 1.171977,-3.17295 3.068048,-3.48064 1.8295453,-0.29689 3.8958943,1.37008 3.8983243,3.14487 7.28e-4,0.53211 0.157899,0.7585 0.596301,0.8589 2.124362,0.48649 14.06898,3.20689 34.858853,7.93912 13.169635,2.99769 27.303531,6.21931 31.408657,7.15916 4.105126,0.93984 7.61747,1.7061 7.80521,1.70279 0.18774,-0.003 0.52996,-0.39026 0.7605,-0.8599 0.61956,-1.26214 2.32701,-2.35828 3.91052,-2.51043 3.3397,-0.3209 6.26463,3.06852 5.35419,6.20447 l -0.24497,0.84375 6.525341,3.49667 c 23.24699,12.45713 21.69585,11.67701 22.33202,11.23142 0.96962,-0.67914 2.24781,-0.51847 3.16401,0.39772 0.69422,0.69423 0.78429,0.93997 0.64931,1.77172 -0.0862,0.53113 -0.43877,1.24775 -0.78352,1.59249 l -0.6268,0.62681 1.67693,7.19011 c 0.92231,3.95456 1.67693,7.28053 1.67693,7.39106 0,0.11052 0.30357,0.20095 0.6746,0.20095 1.72082,0 3.29137,1.684 3.29316,3.53105 0.001,1.34551 -0.70023,2.48931 -1.9067,3.10872 -1.07759,0.55324 -1.84612,0.6089 -2.85467,0.20674 z"
       id="path2" /></g></svg>
