<?xml version="1.0" encoding="UTF-8" standalone="no"?>
<!-- Created with Inkscape (http://www.inkscape.org/) -->

<svg
   width="31.283829mm"
   height="65.873444mm"
   viewBox="0 0 31.283829 65.873444"
   version="1.1"
   id="svg1"
   xml:space="preserve"
   inkscape:version="1.3 (0e150ed6c4, 2023-07-21)"
   xmlns:inkscape="http://www.inkscape.org/namespaces/inkscape"
   xmlns:sodipodi="http://sodipodi.sourceforge.net/DTD/sodipodi-0.dtd"
   xmlns="http://www.w3.org/2000/svg"
   xmlns:svg="http://www.w3.org/2000/svg"><sodipodi:namedview
     id="namedview1"
     pagecolor="#ffffff"
     bordercolor="#666666"
     borderopacity="1.0"
     inkscape:showpageshadow="2"
     inkscape:pageopacity="0.0"
     inkscape:pagecheckerboard="0"
     inkscape:deskcolor="#d1d1d1"
     inkscape:document-units="mm"
     showguides="true"
     inkscape:zoom="0.72782688"
     inkscape:cx="542.0245"
     inkscape:cy="689.03748"
     inkscape:window-width="1920"
     inkscape:window-height="1094"
     inkscape:window-x="-11"
     inkscape:window-y="-11"
     inkscape:window-maximized="1"
     inkscape:current-layer="layer1" /><defs
     id="defs1" /><g
     inkscape:label="Layer 1"
     inkscape:groupmode="layer"
     id="layer1"
     transform="translate(-142.08625,-104.49381)"><path
       style="fill:#000000"
       d="m 171.35125,170.29276 c -0.37883,-0.12113 -0.84693,-0.60026 -0.96069,-0.98333 -0.15919,-0.53606 -0.0642,-1.04428 0.2675,-1.43186 l 0.19462,-0.22736 -1.03712,-1.55771 c -0.57041,-0.85674 -4.02218,-6.05413 -7.67059,-11.54976 -6.56498,-9.88888 -6.63472,-9.99125 -6.75379,-9.91323 -0.41541,0.27219 -1.2835,0.37897 -1.80497,0.22203 l -0.24973,-0.0751 -0.0871,0.16853 c -0.0479,0.0927 -0.99233,1.68115 -2.09876,3.52991 -1.10642,1.84877 -2.60074,4.36981 -3.32071,5.60231 -0.71997,1.23251 -1.78972,3.05609 -2.37724,4.05241 l -1.0682,1.81148 0.23163,0.25763 c 0.29687,0.33019 0.42248,0.69485 0.38432,1.11571 -0.0517,0.5702 -0.48807,1.13199 -0.98686,1.27052 -0.31319,0.087 -0.81206,0.0657 -1.05591,-0.0451 -0.90839,-0.41259 -1.15892,-1.56943 -0.5016,-2.31618 0.29657,-0.33692 0.62349,-0.4805 1.11004,-0.4875 l 0.39153,-0.006 2.79064,-4.66744 c 1.53486,-2.56709 3.55653,-5.97598 4.49261,-7.5753 l 1.70197,-2.90787 -0.19681,-0.16006 c -0.5564,-0.45255 -0.84787,-1.07787 -0.84787,-1.81902 0,-1.32202 1.00684,-2.31602 2.34595,-2.31602 0.40881,0 0.42853,-0.006 0.42857,-0.12005 2e-5,-0.066 0.16784,-1.35656 0.37293,-2.86785 0.20509,-1.5113 0.37276,-2.79583 0.37262,-2.85452 -1.9e-4,-0.0751 -0.0908,-0.15524 -0.30624,-0.27066 -0.33973,-0.18204 -0.65481,-0.54814 -0.75257,-0.87443 -0.0332,-0.11064 -0.0603,-0.35662 -0.0603,-0.54661 0,-0.27852 0.0316,-0.40868 0.16316,-0.67195 0.21297,-0.4262 0.52419,-0.67918 1.02399,-0.83238 0.0514,-0.0157 0.0934,-0.0775 0.0934,-0.13715 0,-0.21499 -1.26266,-6.95352 -2.37974,-12.7001 -0.19109,-0.98307 -0.64639,-3.43208 -1.01176,-5.44225 -0.36537,-2.01016 -0.6704,-3.67365 -0.67785,-3.69665 -0.007,-0.023 -0.19334,-0.0507 -0.4131,-0.0617 -0.97687,-0.0486 -1.8117,-0.6747 -2.13848,-1.60389 -0.0931,-0.26475 -0.10918,-0.41297 -0.0929,-0.85677 0.0174,-0.47583 0.0393,-0.5766 0.19322,-0.88917 0.35721,-0.7256 0.98258,-1.19765 1.76418,-1.33168 1.02659,-0.17604 2.04519,0.3679 2.50948,1.34008 0.18532,0.38804 0.19277,0.42637 0.19277,0.99057 0,0.55017 -0.0107,0.60957 -0.17154,0.94906 -0.22599,0.47712 -0.66638,0.9366 -1.10433,1.1522 -0.18584,0.0915 -0.36495,0.16634 -0.39803,0.16634 -0.0331,0 -0.0601,0.0317 -0.0601,0.0705 0,0.0719 0.21501,1.19403 0.92709,4.83822 0.22076,1.1298 0.65578,3.43475 0.9667,5.12211 1.14277,6.20176 2.04333,10.97119 2.25419,11.93827 0.0147,0.0673 0.0661,0.12004 0.11716,0.12004 0.46599,0 1.15629,0.5645 1.30575,1.06778 0.17501,0.58934 0.0657,1.1115 -0.32325,1.54411 -0.28881,0.32122 -0.56559,0.47668 -0.92437,0.51917 l -0.25799,0.0306 -0.0571,0.40668 c -0.34645,2.46699 -0.75347,5.4583 -0.75337,5.53678 8e-5,0.0653 0.0983,0.15004 0.29038,0.25038 0.386,0.20169 0.79611,0.64541 1.00595,1.0884 0.15998,0.33772 0.17081,0.39785 0.17081,0.94751 0,0.53088 -0.0143,0.61747 -0.1493,0.90704 -0.0821,0.17608 -0.22192,0.41094 -0.31067,0.52192 -0.0888,0.11098 -0.15362,0.22202 -0.14415,0.24675 0.009,0.0247 3.46264,5.23388 7.67371,11.57589 l 7.65649,11.53092 0.18675,-0.0395 c 1.04521,-0.22103 1.94382,0.46368 1.94382,1.48114 0,1.0413 -1.02174,1.78166 -2.01882,1.46286 z"
       id="path7" /></g></svg>
