<?xml version="1.0" encoding="UTF-8" standalone="no"?>
<!-- Created with Inkscape (http://www.inkscape.org/) -->

<svg
   width="87.268402mm"
   height="68.389839mm"
   viewBox="0 0 87.268402 68.389839"
   version="1.1"
   id="svg1"
   xml:space="preserve"
   inkscape:version="1.3 (0e150ed6c4, 2023-07-21)"
   xmlns:inkscape="http://www.inkscape.org/namespaces/inkscape"
   xmlns:sodipodi="http://sodipodi.sourceforge.net/DTD/sodipodi-0.dtd"
   xmlns="http://www.w3.org/2000/svg"
   xmlns:svg="http://www.w3.org/2000/svg"><sodipodi:namedview
     id="namedview1"
     pagecolor="#ffffff"
     bordercolor="#666666"
     borderopacity="1.0"
     inkscape:showpageshadow="2"
     inkscape:pageopacity="0.0"
     inkscape:pagecheckerboard="0"
     inkscape:deskcolor="#d1d1d1"
     inkscape:document-units="mm"
     showguides="true"
     inkscape:zoom="0.72782688"
     inkscape:cx="542.0245"
     inkscape:cy="689.03748"
     inkscape:window-width="1920"
     inkscape:window-height="1094"
     inkscape:window-x="-11"
     inkscape:window-y="-11"
     inkscape:window-maximized="1"
     inkscape:current-layer="layer1" /><defs
     id="defs1" /><g
     inkscape:label="Layer 1"
     inkscape:groupmode="layer"
     id="layer1"
     transform="translate(-117.50859,-97.629941)"><path
       style="fill:#000000"
       d="m 162.87292,165.95333 c -0.14249,-0.047 -0.32885,-0.1229 -0.41413,-0.16874 -0.29214,-0.15703 -0.73087,-0.61411 -0.9028,-0.94054 -0.15178,-0.28818 -0.17277,-0.40469 -0.17915,-0.99426 l -0.007,-0.66782 -4.88302,-2.98153 c -2.68566,-1.63983 -4.94318,-3.037 -5.01672,-3.10481 -0.17117,-0.15783 -0.23884,-0.15516 -0.39058,0.0154 -0.3277,0.36835 -1.15902,0.49804 -1.6352,0.25512 -0.68573,-0.34984 -1.02316,-1.15445 -0.75415,-1.7983 0.0539,-0.129 0.0903,-0.24064 0.081,-0.24809 -0.0175,-0.0139 -5.96391,-4.13181 -7.45005,-5.15917 -0.45476,-0.31438 -0.84119,-0.57159 -0.85871,-0.57159 -0.0175,0 -0.1468,0.0833 -0.28728,0.18501 -0.35516,0.25728 -0.75896,0.35664 -1.29383,0.31837 -0.74118,-0.053 -1.36455,-0.53463 -1.59671,-1.23359 -0.13871,-0.41763 -0.0977,-1.07891 0.0896,-1.44581 l 0.13553,-0.26541 -0.27155,-0.26085 -0.27155,-0.26085 -0.25906,0.11977 c -0.33678,0.15571 -0.89291,0.15637 -1.23056,0.001 -0.47966,-0.22004 -0.78078,-0.62165 -0.85118,-1.13523 -0.0562,-0.41 0.0148,-0.69807 0.26316,-1.06706 l 0.21681,-0.32218 -3.23743,-5.10498 c -7.59821,-11.98132 -9.98065,-15.73024 -10.03337,-15.78814 -0.0347,-0.0381 -0.16828,-0.007 -0.35081,0.0817 -0.99364,0.48275 -2.27336,0.27527 -3.09498,-0.50178 -1.43229,-1.35461 -1.06307,-3.71087 0.71308,-4.55064 1.09923,-0.51971 2.25268,-0.33302 3.13353,0.50717 0.24291,0.2317 0.45957,0.51736 0.5792,0.76366 0.19932,0.41039 0.35782,1.1891 0.29388,1.44383 -0.0204,0.0813 -0.0272,0.14785 -0.015,0.14785 0.0122,0 0.86309,0.0874 1.89096,0.1943 2.20809,0.22957 2.106,0.22562 2.09388,0.081 -0.0177,-0.21176 0.0108,-0.34002 0.0758,-0.34002 0.0356,0 0.0648,0.0463 0.0648,0.1029 0,0.0797 0.0456,0.0646 0.20206,-0.0671 0.65941,-0.55485 1.52076,-0.61493 2.20065,-0.15347 0.35497,0.24092 0.68224,0.6986 0.75568,1.0568 l 0.0531,0.25906 0.48295,0.0465 c 0.39388,0.0379 4.43226,0.27536 8.15797,0.47964 l 0.74501,0.0409 0.0838,-0.23161 c 0.10722,-0.29653 0.63709,-0.77416 0.96921,-0.87366 0.81641,-0.24461 1.71376,0.14786 2.01812,0.88265 0.0488,0.11789 0.14557,0.22073 0.2236,0.2377 0.0756,0.0164 3.60331,0.4443 7.83928,0.95077 l 7.70175,0.92086 0.10258,-0.15667 c 0.21726,-0.33182 0.4628,-0.56243 0.79437,-0.74611 0.30616,-0.1696 0.40572,-0.19072 0.89499,-0.18992 0.47016,7.8e-4 0.59864,0.0262 0.88018,0.17395 0.18131,0.0952 0.42087,0.27692 0.53234,0.40388 0.11148,0.12696 0.22543,0.23133 0.25324,0.23193 0.0278,5.9e-4 7.05374,-2.92118 15.61319,-6.49282 14.18023,-5.91706 15.55923,-6.50541 15.52424,-6.62344 -0.30454,-1.02743 -0.11864,-1.99 0.53088,-2.74881 0.7091,-0.82843 1.97181,-1.17604 2.97996,-0.82034 0.20631,0.0728 0.28476,0.0772 0.33118,0.0188 0.0335,-0.0421 0.77917,-1.252 1.65714,-2.68864 l 1.5963,-2.61206 -0.28982,-0.32235 c -1.23168,-1.36993 -0.85306,-3.500692 0.76406,-4.299912 1.42381,-0.70369 3.05909,-0.1544 3.75127,1.26003 0.19795,0.40452 0.20837,0.46311 0.20837,1.171982 0,0.71451 -0.009,0.76475 -0.2155,1.1839 -0.56512,1.14794 -1.83558,1.77978 -3.02282,1.50335 -0.24935,-0.0581 -0.52123,-0.11113 -0.60418,-0.11795 -0.13271,-0.0109 -0.34506,0.30542 -1.76792,2.63356 l -1.61709,2.64595 0.31971,0.33805 c 0.36976,0.39097 0.55447,0.7245 0.69054,1.2469 0.52479,2.01478 -1.37054,3.89742 -3.38404,3.36139 l -0.33972,-0.0904 -0.6091,1.0789 c -0.33501,0.59339 -1.84905,3.27426 -3.36454,5.95749 l -2.75543,4.87861 0.13426,0.25759 c 0.50742,0.9735 -0.15113,2.12814 -1.21439,2.1292 l -0.31958,3.2e-4 -4.69242,8.43549 c -2.58083,4.63952 -6.09022,10.93848 -7.79864,13.9977 -2.09184,3.74578 -3.08693,5.58742 -3.04715,5.6394 0.50614,0.66143 0.66948,1.18623 0.55171,1.77264 -0.1261,0.62791 -0.46523,1.06928 -1.06799,1.38999 -0.39098,0.20802 -1.25162,0.20342 -1.65155,-0.009 l -0.28392,-0.15068 -0.13706,0.137 c -0.0754,0.0753 -0.88435,0.95956 -1.79769,1.96491 -1.5553,1.71198 -1.65477,1.83613 -1.56839,1.95745 0.0507,0.0712 0.17067,0.28983 0.26655,0.48575 0.24465,0.49994 0.24555,1.22727 0.002,1.75827 -0.34469,0.75205 -1.05212,1.22405 -1.89364,1.26344 -0.26386,0.0124 -0.56636,-0.0147 -0.71597,-0.064 z m -0.89684,-3.60901 c 0.63936,-0.60468 1.43385,-0.79202 2.19216,-0.51691 0.21373,0.0775 0.43593,0.14623 0.49379,0.15265 0.0633,0.007 0.81336,-0.76174 1.88243,-1.92926 l 1.77725,-1.94093 -0.19591,-0.37986 c -0.5211,-1.0104 0.002,-2.31613 1.06917,-2.67071 0.32188,-0.10691 0.99673,-0.10719 1.32242,-5.5e-4 0.11785,0.0386 0.37039,-0.3879 2.42164,-4.08963 1.25954,-2.27298 4.7517,-8.55824 7.76036,-13.96724 l 5.47029,-9.83454 -0.19369,-0.20424 c -0.30041,-0.31676 -0.4131,-0.59544 -0.41109,-1.01658 0.003,-0.62131 0.3884,-1.17273 0.94902,-1.35775 0.21048,-0.0695 0.81649,-0.0654 1.05462,0.007 0.0752,0.0229 1.75992,-2.90756 5.90722,-10.2751 l 0.84019,-1.49259 -0.41727,-0.42765 c -0.22949,-0.23522 -0.426,-0.40228 -0.43667,-0.37125 -0.0167,0.0485 -6.10763,2.60239 -26.91054,11.28343 l -4.22294,1.76223 0.0373,0.36069 c 0.11573,1.11849 -0.78055,2.09816 -1.91451,2.09262 -1.01508,-0.005 -1.82371,-0.76113 -1.93158,-1.80628 -0.0351,-0.34022 -0.0405,-0.34785 -0.27007,-0.38421 -0.12884,-0.0204 -3.52762,-0.43019 -7.55284,-0.91065 -4.02523,-0.48046 -7.39516,-0.88683 -7.48875,-0.90305 -0.15219,-0.0264 -0.17406,-0.005 -0.20721,0.19891 -0.11174,0.68857 -0.87587,1.31764 -1.60244,1.31922 -0.67723,0.001 -1.39301,-0.53695 -1.58309,-1.19083 -0.0803,-0.27634 -0.13924,-0.36992 -0.24669,-0.3919 -0.17413,-0.0356 -6.76849,-0.41548 -8.148,-0.46936 l -1.0035,-0.0392 -0.17814,0.36411 c -0.33804,0.69092 -0.98681,1.06087 -1.75263,0.9994 -0.47683,-0.0383 -0.75244,-0.16686 -1.12223,-0.52356 -0.33275,-0.32098 -0.5337,-0.81385 -0.5337,-1.309 0,-0.19459 -0.0219,-0.35381 -0.0486,-0.35384 -0.0872,-1e-4 -3.21423,-0.3188 -3.51528,-0.35828 -0.28868,-0.0378 -0.29441,-0.035 -0.37558,0.18952 -0.0453,0.12537 -0.21252,0.40467 -0.37152,0.62065 l -0.28909,0.3927 5.52605,8.69358 c 3.03932,4.78148 6.04519,9.50965 6.67971,10.50705 l 1.15366,1.81345 0.38768,-0.0223 c 0.52046,-0.0299 0.88534,0.1159 1.20848,0.48302 0.4107,0.46658 0.48889,1.0494 0.21722,1.61912 l -0.10537,0.22095 0.24475,0.25064 0.24475,0.25065 0.38573,-0.19893 c 1.24777,-0.64353 2.66281,0.13167 2.76164,1.51291 0.0218,0.30518 -5.5e-4,0.53073 -0.0741,0.74661 -0.058,0.17013 -0.1054,0.33179 -0.1054,0.35925 0,0.0509 0.2348,0.21439 5.36713,3.73701 l 2.93839,2.01679 0.17039,-0.11854 c 0.85185,-0.59264 2.02769,-0.13424 2.27242,0.8859 0.0504,0.21014 0.0545,0.39719 0.0128,0.58293 l -0.0615,0.27349 0.33341,0.16055 c 0.18338,0.0883 2.46099,1.45651 5.06135,3.04049 2.60037,1.58397 4.7397,2.88098 4.75407,2.88224 0.0144,10e-4 0.18193,-0.14506 0.37236,-0.32516 z"
       id="path8" /></g></svg>
