<?xml version="1.0" encoding="utf-8"?>
<!-- Generator: Adobe Illustrator 25.1.0, SVG Export Plug-In . SVG Version: 6.00 Build 0)  -->
<svg version="1.1" xmlns="http://www.w3.org/2000/svg" xmlns:xlink="http://www.w3.org/1999/xlink" x="0px" y="0px"
	 viewBox="0 0 250.7 212.2" style="enable-background:new 0 0 250.7 212.2;" xml:space="preserve">
<style type="text/css">
	.st0{fill:#231F20;}
	.st1{fill:#FFFFFF;stroke:#FDFDFD;stroke-width:0.5;}
	.st2{fill:#FFFFFF;}
	.st3{fill:none;stroke:#FFFFFF;}
</style>
<g id="Layer_1">
	<rect width="250.7" height="212.2"/>
	<path class="st0" d="M72.6,191.5c3.3,0,6-2.7,6-6s-2.7-6-6-6s-6,2.7-6,6S69.3,191.5,72.6,191.5"/>
	<path class="st1" d="M72.6,191.5c3.3,0,6-2.7,6-6s-2.7-6-6-6s-6,2.7-6,6S69.3,191.5,72.6,191.5z"/>
	<path class="st0" d="M98,180.6c2.5,0,4.5-2,4.5-4.5c0-2.5-2-4.5-4.5-4.5s-4.5,2-4.5,4.5C93.5,178.6,95.5,180.6,98,180.6"/>
	<path class="st1" d="M98,180.6c2.5,0,4.5-2,4.5-4.5c0-2.5-2-4.5-4.5-4.5s-4.5,2-4.5,4.5C93.5,178.6,95.5,180.6,98,180.6z"/>
	<path class="st0" d="M67.3,42.5c1.6,0,2.8-1.3,2.8-2.8s-1.3-2.8-2.8-2.8c-1.6,0-2.8,1.3-2.8,2.8S65.7,42.5,67.3,42.5"/>
	<path class="st1" d="M67.3,42.5c1.6,0,2.8-1.3,2.8-2.8s-1.3-2.8-2.8-2.8c-1.6,0-2.8,1.3-2.8,2.8S65.7,42.5,67.3,42.5z"/>
	<path class="st0" d="M163.4,108.1c1.5,0,2.7-1.2,2.7-2.7c0-1.5-1.2-2.7-2.7-2.7c-1.5,0-2.7,1.2-2.7,2.7
		C160.7,106.9,161.9,108.1,163.4,108.1"/>
	<path class="st1" d="M163.4,108.1c1.5,0,2.7-1.2,2.7-2.7c0-1.5-1.2-2.7-2.7-2.7c-1.5,0-2.7,1.2-2.7,2.7
		C160.7,106.9,161.9,108.1,163.4,108.1z"/>
	<path class="st0" d="M110.8,136c1.5,0,2.6-1.2,2.6-2.6s-1.2-2.6-2.6-2.6c-1.5,0-2.6,1.2-2.6,2.6S109.4,136,110.8,136"/>
	<path class="st1" d="M110.8,136c1.5,0,2.6-1.2,2.6-2.6s-1.2-2.6-2.6-2.6c-1.5,0-2.6,1.2-2.6,2.6S109.4,136,110.8,136z"/>
	<path class="st0" d="M44,83c1.4,0,2.6-1.2,2.6-2.6s-1.2-2.6-2.6-2.6s-2.6,1.2-2.6,2.6S42.6,83,44,83"/>
	<path class="st1" d="M44,83c1.4,0,2.6-1.2,2.6-2.6s-1.2-2.6-2.6-2.6s-2.6,1.2-2.6,2.6S42.6,83,44,83z"/>
	<path class="st0" d="M91.1,102.3c1.3,0,2.4-1.1,2.4-2.4c0-1.3-1.1-2.4-2.4-2.4s-2.4,1.1-2.4,2.4C88.7,101.2,89.8,102.3,91.1,102.3"
		/>
	<path class="st1" d="M91.1,102.3c1.3,0,2.4-1.1,2.4-2.4c0-1.3-1.1-2.4-2.4-2.4s-2.4,1.1-2.4,2.4C88.7,101.2,89.8,102.3,91.1,102.3z
		"/>
	<path class="st0" d="M193.4,121.4c1.3,0,2.4-1.1,2.4-2.4c0-1.3-1.1-2.4-2.4-2.4c-1.3,0-2.4,1.1-2.4,2.4
		C191,120.3,192.1,121.4,193.4,121.4"/>
	<path class="st1" d="M193.4,121.4c1.3,0,2.4-1.1,2.4-2.4c0-1.3-1.1-2.4-2.4-2.4c-1.3,0-2.4,1.1-2.4,2.4
		C191,120.3,192.1,121.4,193.4,121.4z"/>
	<path class="st0" d="M121.5,36.6c1.3,0,2.3-1,2.3-2.3s-1-2.3-2.3-2.3s-2.3,1-2.3,2.3S120.2,36.6,121.5,36.6"/>
	<path class="st1" d="M121.5,36.6c1.3,0,2.3-1,2.3-2.3c0-1.3-1-2.3-2.3-2.3s-2.3,1-2.3,2.3C119.2,35.6,120.2,36.6,121.5,36.6z"/>
	<path class="st0" d="M92.6,73.4c1.2,0,2.2-1,2.2-2.2c0-1.2-1-2.2-2.2-2.2c-1.2,0-2.2,1-2.2,2.2C90.4,72.4,91.4,73.4,92.6,73.4"/>
	<path class="st1" d="M92.6,73.4c1.2,0,2.2-1,2.2-2.2c0-1.2-1-2.2-2.2-2.2c-1.2,0-2.2,1-2.2,2.2C90.4,72.4,91.4,73.4,92.6,73.4z"/>
	<path class="st2" d="M92.6,72.8c0.9,0,1.5-0.7,1.5-1.5s-0.7-1.5-1.5-1.5c-0.9,0-1.5,0.7-1.5,1.5S91.7,72.8,92.6,72.8"/>
	<path class="st0" d="M92.6,72.5c0.7,0,1.3-0.6,1.3-1.3s-0.6-1.3-1.3-1.3s-1.3,0.6-1.3,1.3S91.9,72.5,92.6,72.5"/>
	<path class="st1" d="M92.6,72.5c0.7,0,1.3-0.6,1.3-1.3s-0.6-1.3-1.3-1.3s-1.3,0.6-1.3,1.3S91.9,72.5,92.6,72.5z"/>
	<path class="st0" d="M19.7,90.4c1.1,0,2-0.9,2-2s-0.9-2-2-2c-1.1,0-2,0.9-2,2S18.6,90.4,19.7,90.4"/>
	<path class="st1" d="M19.7,90.4c1.1,0,2-0.9,2-2s-0.9-2-2-2c-1.1,0-2,0.9-2,2S18.6,90.4,19.7,90.4z"/>
	<path class="st0" d="M92,68.5c1,0,1.9-0.8,1.9-1.9s-0.8-1.9-1.9-1.9s-1.9,0.8-1.9,1.9S91,68.5,92,68.5"/>
	<path class="st1" d="M92,68.5c1,0,1.9-0.8,1.9-1.9s-0.8-1.9-1.9-1.9s-1.9,0.8-1.9,1.9S91,68.5,92,68.5z"/>
	<path class="st0" d="M83,72.3c0.9,0,1.6-0.7,1.6-1.6c0-0.9-0.7-1.7-1.6-1.7s-1.6,0.7-1.6,1.7C81.4,71.5,82.1,72.3,83,72.3"/>
	<path class="st1" d="M83,72.3c0.9,0,1.6-0.7,1.6-1.6c0-0.9-0.7-1.7-1.6-1.7s-1.6,0.7-1.6,1.7C81.4,71.5,82.1,72.3,83,72.3z"/>
	<path class="st0" d="M229.5,151.6c0.9,0,1.6-0.7,1.6-1.6c0-0.9-0.7-1.6-1.6-1.6c-0.9,0-1.6,0.7-1.6,1.6
		C227.9,150.9,228.6,151.6,229.5,151.6"/>
	<path class="st1" d="M229.5,151.6c0.9,0,1.6-0.7,1.6-1.6c0-0.9-0.7-1.6-1.6-1.6c-0.9,0-1.6,0.7-1.6,1.6
		C227.9,150.9,228.6,151.6,229.5,151.6z"/>
	<path class="st0" d="M110.7,52.6c0.9,0,1.6-0.7,1.6-1.6c0-0.9-0.7-1.6-1.6-1.6s-1.6,0.7-1.6,1.6C109.1,51.8,109.8,52.6,110.7,52.6"
		/>
	<path class="st1" d="M110.7,52.6c0.9,0,1.6-0.7,1.6-1.6c0-0.9-0.7-1.6-1.6-1.6s-1.6,0.7-1.6,1.6C109.1,51.8,109.8,52.6,110.7,52.6z
		"/>
	<path class="st0" d="M175.6,115.4c0.9,0,1.6-0.7,1.6-1.6s-0.7-1.6-1.6-1.6c-0.9,0-1.6,0.7-1.6,1.6S174.7,115.4,175.6,115.4"/>
	<path class="st1" d="M175.6,115.4c0.9,0,1.6-0.7,1.6-1.6s-0.7-1.6-1.6-1.6c-0.9,0-1.6,0.7-1.6,1.6S174.7,115.4,175.6,115.4z"/>
	<path class="st0" d="M189,129.6c0.9,0,1.6-0.7,1.6-1.6c0-0.9-0.7-1.6-1.6-1.6s-1.6,0.7-1.6,1.6C187.4,128.9,188.1,129.6,189,129.6"
		/>
	<path class="st1" d="M189,129.6c0.9,0,1.6-0.7,1.6-1.6c0-0.9-0.7-1.6-1.6-1.6s-1.6,0.7-1.6,1.6C187.4,128.9,188.1,129.6,189,129.6z
		"/>
	<path class="st0" d="M53.4,53.5c0.8,0,1.5-0.7,1.5-1.5c0-0.8-0.7-1.5-1.5-1.5c-0.9,0-1.5,0.7-1.5,1.5
		C51.9,52.8,52.6,53.5,53.4,53.5"/>
	<path class="st1" d="M53.4,53.5c0.8,0,1.5-0.7,1.5-1.5c0-0.8-0.7-1.5-1.5-1.5c-0.9,0-1.5,0.7-1.5,1.5
		C51.9,52.8,52.6,53.5,53.4,53.5z"/>
	<path class="st0" d="M73.7,68.4c0.8,0,1.4-0.6,1.4-1.4c0-0.8-0.6-1.4-1.4-1.4c-0.8,0-1.4,0.6-1.4,1.4
		C72.3,67.7,72.9,68.4,73.7,68.4"/>
	<path class="st1" d="M73.7,68.4c0.8,0,1.4-0.6,1.4-1.4c0-0.8-0.6-1.4-1.4-1.4c-0.8,0-1.4,0.6-1.4,1.4
		C72.3,67.7,72.9,68.4,73.7,68.4z"/>
	<path class="st0" d="M193.7,120c0.8,0,1.4-0.6,1.4-1.4s-0.6-1.4-1.4-1.4c-0.8,0-1.4,0.6-1.4,1.4S193,120,193.7,120"/>
	<path class="st1" d="M193.7,120c0.8,0,1.4-0.6,1.4-1.4s-0.6-1.4-1.4-1.4c-0.8,0-1.4,0.6-1.4,1.4S193,120,193.7,120z"/>
	<path class="st0" d="M168.3,54.7c0.7,0,1.3-0.6,1.3-1.3c0-0.7-0.6-1.3-1.3-1.3s-1.3,0.6-1.3,1.3C167,54.1,167.5,54.7,168.3,54.7"/>
	<path class="st1" d="M168.3,54.7c0.7,0,1.3-0.6,1.3-1.3c0-0.7-0.6-1.3-1.3-1.3s-1.3,0.6-1.3,1.3C167,54.1,167.5,54.7,168.3,54.7z"
		/>
	<path class="st0" d="M162.5,105.8c0.7,0,1.3-0.6,1.3-1.3c0-0.7-0.6-1.3-1.3-1.3s-1.3,0.6-1.3,1.3
		C161.2,105.2,161.8,105.8,162.5,105.8"/>
	<path class="st1" d="M162.5,105.8c0.7,0,1.3-0.6,1.3-1.3c0-0.7-0.6-1.3-1.3-1.3s-1.3,0.6-1.3,1.3
		C161.2,105.2,161.8,105.8,162.5,105.8z"/>
	<path class="st0" d="M212.9,176.4c0.7,0,1.2-0.6,1.2-1.2s-0.6-1.2-1.2-1.2s-1.2,0.6-1.2,1.2S212.2,176.4,212.9,176.4"/>
	<path class="st1" d="M212.9,176.4c0.7,0,1.2-0.6,1.2-1.2s-0.6-1.2-1.2-1.2s-1.2,0.6-1.2,1.2S212.2,176.4,212.9,176.4z"/>
	<path class="st2" d="M212.9,175.8c0.3,0,0.6-0.3,0.6-0.6s-0.3-0.6-0.6-0.6c-0.3,0-0.6,0.3-0.6,0.6S212.5,175.8,212.9,175.8"/>
	<path class="st0" d="M212.7,176.7c0.6,0,1.1-0.5,1.1-1.1c0-0.6-0.5-1.1-1.1-1.1c-0.6,0-1.1,0.5-1.1,1.1
		C211.6,176.2,212.1,176.7,212.7,176.7"/>
	<path class="st1" d="M212.7,176.7c0.6,0,1.1-0.5,1.1-1.1c0-0.6-0.5-1.1-1.1-1.1c-0.6,0-1.1,0.5-1.1,1.1
		C211.6,176.2,212.1,176.7,212.7,176.7z"/>
	<path class="st3" d="M44,80.4l-24.3,8"/>
	<path class="st3" d="M163.5,105.4L163.5,105.4l-52.6,27.9L98,176.1l-25.3,9.3l25.3-9.3l12.9-42.8L91.1,99.9L163.5,105.4l-72.4-5.5
		l-6.8-11.1L83,70.6l-39,9.8l39-9.8L73.7,67l-20.2-15l13.8-12.3l25,29.3l-1.2,30.9"/>
	<path class="st3" d="M229.5,150l-36.1-31l-17.8-5.2l-12.1-8.4l12.1,8.4L189,128l23.8,47.4"/>
	<path class="st3" d="M92.3,68.9l18.4-18l10.8-16.6l46.8,19"/>
	<path class="st0" d="M92.5,99.6c0.5,0,0.9-0.4,0.9-0.9s-0.4-0.9-0.9-0.9s-0.9,0.4-0.9,0.9S92,99.6,92.5,99.6"/>
	<path class="st1" d="M92.5,99.6c0.5,0,0.9-0.4,0.9-0.9c0-0.5-0.4-0.9-0.9-0.9s-0.9,0.4-0.9,0.9C91.5,99.2,92,99.6,92.5,99.6z"/>
	<path class="st2" d="M86.4,185.5l-1.2,3.2c0.1,0.5,0.2,0.8,0.4,1c0.1,0.1,0.4,0.3,0.7,0c0.2-0.2,0.2-0.5,0.2-0.7h0.2l0,0.6
		c0,0.2-0.1,0.6-0.4,0.8c-0.3,0.2-0.5,0.1-0.7,0c-0.2-0.2-0.4-0.6-0.6-1.2c-0.2,0.3-0.4,1-1.3,1.3c-0.5,0.2-1,0.3-1.6,0
		c-0.4-0.2-0.7-0.4-0.9-0.8c-0.2-0.5-0.5-1.1-0.3-2.2c0.1-0.7,0.4-1.2,1.1-1.8c0.3-0.2,0.9-0.3,1.3-0.2c0.5,0.1,0.8,0.4,1.1,0.8
		c0.2,0.3,0.3,0.7,0.4,1.1h0l0.6-1.8H86.4z M84.6,188.2c-0.1-0.5-0.2-1.3-0.4-1.7c-0.2-0.2-0.4-0.5-0.7-0.6c-0.6-0.2-0.8,0-1,0.3
		c-0.2,0.3-0.4,0.8-0.4,1.3c-0.1,0.5,0,1.1,0.1,1.7c0,0.3,0.2,0.6,0.4,0.9c0.2,0.2,0.4,0.3,0.6,0.3c0.2,0,0.4-0.1,0.6-0.3
		c0.2-0.2,0.5-0.7,0.6-1L84.6,188.2z"/>
	<path class="st2" d="M105.7,180.8c0,0.2,0,0.5-0.1,0.8h-0.9c0-0.5,0.2-1,0.2-1.5v-6.5c0-0.8,0.6-1.1,0.9-1.3
		c0.7-0.4,1.7-0.3,2.4,0.3c0.2,0.2,0.6,0.6,0.5,1.3c-0.1,0.7-0.5,1-0.8,1.3c0.6,0.3,1,0.7,1.2,1.5c0.1,0.4,0.2,1,0,1.4
		c-0.2,1-0.9,1.3-1.2,1.4c-0.3,0.1-0.8,0.1-1.2,0.1c-0.4-0.1-0.7-0.2-1.1-0.5L105.7,180.8z M105.7,178.3c0.2,0.2,0.3,0.4,0.7,0.5
		c0.4,0.2,0.9,0.2,1.2,0c0.4-0.2,0.6-0.6,0.6-0.9c0.2-0.7,0-1.8-0.6-2.5c-0.1-0.2-0.2-0.2-0.5-0.2c-0.2,0-0.4,0.1-0.6,0
		c-0.3-0.2-0.1-0.4,0-0.5c0.2-0.2,0.6,0,0.8,0c0.2,0,0.2-0.2,0.3-0.2c0.2-0.3,0.4-1.5-0.3-2c-0.4-0.3-0.7-0.3-0.9-0.2
		c-0.3,0.1-0.7,0.6-0.7,1V178.3z"/>
	<path class="st2" d="M68.9,64.9l-2,3.8c0.2,1.1,0.4,1.6,0.5,1.9c0.2,0.4,0.5,0.7,0.9,0.5c0.5-0.2,0.6-0.7,0.6-0.9h0.2
		c0,0.3-0.2,1.3-0.7,1.7c-0.2,0.1-0.7,0.3-1,0c-0.2-0.2-0.4-0.5-0.5-0.8c-0.2-0.7-0.2-1.1-0.4-1.8h0l-1.5,2.7h-1l2.2-4L66,66.5
		c-0.1-0.3-0.2-0.6-0.5-0.8c-0.3-0.2-0.7-0.2-0.9,0c-0.3,0.3-0.3,0.6-0.4,0.8h-0.2c0-0.4,0.1-1.1,0.5-1.6c0.3-0.3,0.6-0.3,0.9-0.2
		c0.3,0.1,0.6,0.5,0.7,0.9l0.4,1.7l1.3-2.4H68.9z"/>
	<path class="st2" d="M198.3,114.7c-0.2-0.2-0.3-0.5-0.4-0.6c-0.2-0.7,0.2-0.9,0.5-1.1c0.5-0.4,1.6-0.2,1.8-0.1
		c0.3,0.1,0.8,0.3,1,0.5c0.2,0.2,0.3,0.5,0,0.7c-0.3,0.2-0.7,0-1-0.3c-0.3-0.3-0.4-0.4-0.7-0.5c-0.5-0.2-0.8,0-1,0.2
		c-0.1,0.1-0.2,0.5,0.1,0.8c0.5,0.5,1.3,0.9,1.4,1c0.2,0.1,0.9,0.6,1.3,1.2c0.5,0.8,0.7,2.2-0.4,3.2c-0.2,0.2-0.7,0.5-1,0.6
		c-0.5,0.1-1,0.1-1.4-0.1c-0.7-0.3-0.9-0.7-1.1-1.1c-0.3-0.6-0.3-1.4,0.1-2.2c0.5-0.9,1.6-1.2,1.8-1.2L198.3,114.7z M199.8,116.1
		c-0.7,0.2-1.2,0.6-1.4,1.5c0,0.4-0.1,1.2,0.3,1.9c0.3,0.5,0.7,0.5,0.9,0.5c0.3,0,0.6-0.1,0.8-0.4c0.3-0.4,0.4-1.2,0.2-2
		C200.5,116.8,199.9,116.2,199.8,116.1z"/>
	<path class="st2" d="M119.4,137.3c0,0.3-0.2,0.9-1,1.1c-1,0.3-1.9,0-2.4-0.3c-0.4-0.2-0.7-0.8-0.5-1.4c0.2-0.7,0.8-0.8,1.1-0.9
		c-0.5-0.2-0.8-0.4-0.9-0.7c-0.1-0.3-0.2-0.9,0.4-1.3c0.8-0.6,2-0.5,2.3-0.3c0.2,0.1,0.5,0.2,0.7,0.5c0.2,0.3,0.1,0.6-0.1,0.8
		c-0.1,0-0.6,0.2-0.8-0.5c-0.1-0.4-0.6-0.6-1.1-0.4c-0.6,0.3-0.6,1-0.5,1.1c0.1,0.7,0.6,0.7,1,0.7l0.5,0c0.4,0,0.6,0.3,0.2,0.5
		c-0.2,0.1-0.4,0.1-0.7,0c-0.6-0.1-1,0.2-1.1,0.6c-0.1,0.3-0.1,0.7,0.1,0.9c0.4,0.6,1.3,0.5,1.6,0.5c0.5-0.1,0.8-0.3,1-0.9
		L119.4,137.3z"/>
	<path class="st2" d="M82,59.3l0.6,0.1l0,1.6c0.9,0.1,1.7,0.2,2.4,1c0.8,0.9,0.7,2,0.3,2.8c-0.8,1.2-2,1.2-2.6,1.3l0,2.1l-0.6-0.1
		l0-2c-1-0.2-2.3-0.4-2.9-1.7C79,63.8,79,62.9,79.8,62c0.7-0.8,1.8-1,2.2-1L82,59.3z M82.7,65.7c0.5-0.1,0.9-0.1,1.3-0.7
		c0.6-0.8,0.3-2.1,0-2.6c-0.5-0.9-1.1-1-1.4-1.1L82.7,65.7z M82,61.3c-0.3,0.1-1,0.2-1.3,0.8c-0.5,0.8-0.4,2.1,0.3,2.9
		c0.3,0.4,0.8,0.7,1.1,0.7L82,61.3z"/>
	<path class="st2" d="M165.7,109.5l-2,4.4c0,0.3,0.3,1.5,0.1,2.2c-0.1,0.5-0.3,0.6-0.6,0.6s-0.5-0.3-0.5-0.7c0-0.7,0.4-1.7,0.6-2.1
		c-0.2-1.2-0.2-1.5-0.4-2.2c-0.1-0.5-0.3-1-0.5-1.2c-0.1-0.1-0.5-0.5-0.9-0.1c-0.3,0.3-0.3,0.6-0.3,0.9h-0.2c0-0.3,0-0.7,0.2-1.2
		c0.2-0.7,0.9-0.6,1.1-0.5c0.3,0.1,0.6,0.3,0.9,1.4c0.2,0.7,0.3,1.4,0.5,2.2h0l1.1-3.5H165.7z"/>
	<path class="st2" d="M43.4,74.3h-0.9v-3.4c0-0.5,0-0.7-0.2-0.9c-0.2-0.2-0.4-0.2-0.6-0.1c-0.2,0.2-0.2,0.5-0.2,0.8h-0.2
		c0-0.4,0-0.6,0.3-1c0.2-0.4,0.8-0.6,1.3-0.3c0.4,0.2,0.4,0.6,0.5,0.9c0.2-0.3,0.6-0.9,1.2-1c0.3-0.1,0.8-0.1,1.1,0.2
		c0.4,0.3,0.6,0.7,0.6,1.2l0.1,5c0,0.2,0.1,0.5,0.2,0.8h-0.9c0-0.2-0.1-0.5-0.1-1l-0.1-4.5c0-0.4-0.1-0.6-0.3-0.8
		c-0.2-0.2-0.5-0.2-0.8-0.2c-0.6,0.1-0.8,0.6-1,0.8V74.3z"/>
	<path class="st2" d="M126.6,32.9c0,0.2,0,0.5,0.2,0.7c0.1,0.2,0.2,0.2,0.4,0.2c0.3-0.1,0.3-0.5,0.4-0.6h0.2c0,0.2-0.1,1.1-1,1
		c-0.6,0-0.8-0.6-0.8-0.8v-2.1c0-1.1-0.5-1-0.8-1v-0.2c0.8-0.2,1.1-0.3,1.5-0.5V32.9z"/>
	<path class="st2" d="M16.5,79.3c0.4-0.1,0.7-0.1,1.6-0.5V81c0.7-0.7,1.4-1.3,2.1-1.9c0.3-0.3,1-0.4,1.3-0.1c0.3,0.3,0.1,0.7,0,0.8
		c-0.3,0.2-0.6,0.1-0.7,0c-0.3-0.2-0.4-0.3-0.8-0.1c-0.3,0.2-0.6,0.5-1.1,1.1l1.8,2.2c0.3,0.4,0.5,0.6,1.1,0.6v0.2h-2.3v-0.2
		c0.5,0,0.5-0.1,0.4-0.4l-1.7-2v2.6h-0.8v-3.5c0-0.9-0.5-0.8-0.9-0.8V79.3z"/>
	<path class="st2" d="M97.9,68.9v3.3c0,0.5,0.1,0.9,0.5,1.1c0.3,0.1,0.6,0.1,0.8,0c0.2-0.1,0.6-0.4,0.7-0.7v-3.7h0.9v3.8
		c0,0.2,0.1,0.5,0.2,0.7c0.2,0.2,0.3,0.2,0.5,0.1c0.3-0.2,0.2-0.5,0.3-0.6h0.2c-0.1,0.3-0.2,0.8-0.7,1c-0.5,0.3-0.9,0.1-1,0
		c-0.3-0.2-0.3-0.5-0.4-0.8c-0.1,0.1-0.2,0.4-0.7,0.7c-0.2,0.2-0.6,0.3-0.9,0.3c-0.5,0-0.8-0.4-0.9-0.5v0.2c0,0.6,0.2,0.8,0.3,1.3
		c0.1,0.7-0.2,1-0.5,1s-0.6-0.3-0.5-1c0.1-0.6,0.3-0.7,0.3-1.3v-4.9H97.9z"/>
	<path class="st2" d="M92.7,61.7l0.8-1.5c0.3-0.6,0.3-0.8,0.2-1.4c-0.1-0.5-0.1-0.6,0-0.7c0.2-0.4,0.6-0.4,0.8-0.2
		c0.2,0.2,0.2,0.5,0.2,0.7c-0.1,0.2-0.2,0.6-0.4,1.1c-0.5,1.1-1.4,2.7-1.6,3.3h-0.4l-1.7-4.4c-0.1-0.4-0.3-0.3-0.7-0.3V58
		c0.7-0.1,0.7,0,1.3-0.3L92.7,61.7z"/>
	<path class="st2" d="M213.4,167.8c0.6-0.8,1.8-1.1,2.9-0.3c1.4,0.9,1.4,3,0.2,4.2c-0.6,0.6-1.6,0.8-2.6,0.3
		C212.5,170.9,212.4,169,213.4,167.8z M216.1,171.3c0.4-0.6,0.5-2.5-0.2-3.4c-0.8-0.9-1.7-0.4-2,0.2c-0.4,0.8-0.3,2.2,0.2,3
		C214.5,171.8,215.5,172.2,216.1,171.3z"/>
	<path class="st2" d="M234.6,147.4c-0.2,1.9-0.3,3-0.5,3.5c-0.1,0.4-0.2,0.6-0.6,0.7c-0.3,0.1-0.6-0.2-0.6-0.4
		c-0.1-0.3,0.1-0.5,0.2-0.7c0.2-0.2,0.5-0.4,0.5-0.9l0.3-2.3h-0.5c-0.3,0-0.5,0.2-0.7,0.3l-0.2,0.3h-0.2c0.1-0.1,0.2-0.6,0.5-1
		c0.2-0.2,0.5-0.5,0.9-0.5h3.7v0.9h-1.3c-0.1,1.2-0.1,2-0.1,2.4c0,0.3,0.1,0.6,0.2,0.7c0.1,0.1,0.4,0.3,0.7,0
		c0.2-0.2,0.2-0.5,0.3-0.6h0.2c0,0.9-0.5,1.4-0.7,1.5c-0.2,0.1-0.6,0.2-0.8,0c-0.2-0.1-0.4-0.4-0.5-0.7c-0.1-0.4-0.1-1.2-0.1-1.7
		l0.2-1.6H234.6z"/>
	<path class="st2" d="M75.5,36.1c0.3,0.5,0.5,0.8,0.6,1.4c0.2,0.9,0,2,0,2.4c-0.1,0.3-0.2,1-0.6,1.5c-0.6,0.7-1.2,0.8-1.5,0.8
		s-0.9-0.1-1.5-0.8c-0.4-0.5-0.5-1.2-0.6-1.5c-0.1-0.4-0.2-1.5,0-2.4c0.1-0.5,0.3-0.9,0.6-1.4c0.2-0.3,0.8-0.9,1.5-0.9
		S75.3,35.8,75.5,36.1z M75.2,38.4l0-0.9c0-0.5-0.2-1.1-0.4-1.4c-0.1-0.1-0.4-0.5-0.8-0.5s-0.7,0.4-0.8,0.5
		c-0.2,0.3-0.4,0.9-0.4,1.4l0,0.9H75.2z M72.8,38.9l0.1,1c0,0.2,0.1,1,0.5,1.5c0.2,0.2,0.4,0.4,0.7,0.4s0.5-0.2,0.7-0.4
		c0.4-0.5,0.5-1.2,0.5-1.5l0.1-1H72.8z"/>
	<path class="st2" d="M193.3,130.5c0,0.4,0,0.8-0.1,1.1h-0.9c0-0.2,0.1-0.6,0.1-0.9l-0.1-4.2c0-0.6,0.2-1.4,1.3-2
		c0.3-0.2,0.6-0.3,1.3-0.2c0.6,0.1,1,0.5,1.2,0.8c0.4,0.5,0.5,1,0.5,1.6c0,0.3-0.1,1-0.4,1.6c-0.3,0.6-0.8,1-1.1,1.1
		c-0.4,0.2-0.8,0.2-1.1,0.1c-0.5-0.1-0.7-0.4-0.8-0.5V130.5z M193.2,128.2c0,0.2,0.4,1,1.3,0.9c0.4,0,0.6-0.2,0.8-0.4
		c0.2-0.2,0.4-0.7,0.4-1.1c0.1-0.6,0-1.2-0.3-1.6c-0.2-0.4-0.6-0.9-1.2-1c-0.3-0.1-0.5,0-0.7,0.2c-0.3,0.2-0.4,0.5-0.4,0.9
		L193.2,128.2z"/>
	<path class="st2" d="M184,108.7h-2.2v0c0.5,0.2,1.3,1,1.5,1.4c0.2,0.4,0.2,0.8,0,1.4c-0.1,0.3-0.6,1.3-1.7,1.5
		c-0.3,0-1,0.2-1.8-0.2c-0.9-0.5-1.3-1.5-1.4-2c-0.1-0.9,0.1-1.3,0.4-1.7c0.3-0.5,0.9-0.8,1.1-0.9c0.4-0.2,0.9-0.3,1.5-0.3h2.6
		V108.7z M181.3,108.7c-0.3,0-0.9,0-1.4,0.4c-0.5,0.4-0.5,1.2-0.5,1.4c0.1,0.9,0.5,1.5,0.9,1.8c0.2,0.2,0.6,0.4,1.2,0.2
		c0.4-0.1,0.7-0.6,0.8-0.9c0.2-0.5,0.1-1.3-0.1-1.8C182,109.5,181.8,109.2,181.3,108.7z"/>
	<path class="st2" d="M46.3,55.6v-2.1c-0.5-0.1-1.2-0.4-1.7-1c-0.3-0.4-0.5-0.8-0.7-3.2c0-0.5-0.3-0.6-0.8-0.7v-0.2
		c0.2-0.1,0.6-0.1,0.7-0.1c0.6,0,1,0.5,1.1,0.8c0.2,0.4,0.3,2.2,0.4,2.9c0.1,0.8,0.6,1.1,1,1.2v-4.7h0.6v4.7c0.4-0.1,0.9-0.4,1-1.2
		c0.1-0.7,0.2-2.5,0.4-2.9c0.1-0.2,0.4-0.8,1.1-0.8c0.1,0,0.5,0,0.7,0.1v0.2c-0.5,0.1-0.8,0.1-0.8,0.7c-0.1,2.4-0.4,2.8-0.7,3.2
		c-0.5,0.6-1.1,0.9-1.7,1v2.1H46.3z"/>
	<path class="st2" d="M85.1,96.9c-0.1,0.1-0.7,0.3-0.5,0.8c0.1,0.3,0.3,0.4,0.5,0.4c0.4-0.4,0.6-0.7,1.3-1c0.3-0.1,0.5-0.2,0.7-0.1
		c0.1,0,0.3,0.2,0,0.6c-0.1,0.1-0.2,0.3-0.7,0.5c-0.4,0.2-0.5,0.2-1,0.3c-0.3,0.3-0.7,0.8-1,1.3c-0.2,0.4-0.6,1.2-0.5,2.2
		c0,0.1,0,0.5,0.2,0.9c0.3,0.5,0.7,0.5,1,0.5l0.5,0c0.8,0,1.3,0.2,1.4,0.3c0.3,0.3,0.5,0.5,0.5,1c0.1,0.8-0.4,1.6-1,1.8
		c-0.4,0.1-0.8,0.1-1.1,0c-0.2-0.1-0.4-0.2-0.4-0.4c0-0.2,0.2-0.5,0.7-0.5c0.5,0.1,0.7,0.2,1,0.1c0.4-0.2,0.4-0.6,0.4-0.7
		c0-0.4-0.4-0.6-0.8-0.6c-0.4,0-0.8,0.1-1.3,0c-0.3-0.1-1.1-0.4-1.3-1c-0.2-0.4-0.2-1-0.2-1.3c0-0.7,0-1.1,0.5-2.3
		c0.2-0.4,0.5-0.9,0.8-1.3l-0.5-0.1c-0.5-0.2-0.6-0.8-0.2-1.2c0.3-0.3,0.6-0.4,0.9-0.4L85.1,96.9z"/>
</g>
<g id="Layer_2">
</g>
</svg>
