<?xml version="1.0" encoding="UTF-8" standalone="no"?>
<!-- Created with Inkscape (http://www.inkscape.org/) -->

<svg
   width="112.69621mm"
   height="59.85762mm"
   viewBox="0 0 112.69621 59.85762"
   version="1.1"
   id="svg1"
   xml:space="preserve"
   inkscape:version="1.3 (0e150ed6c4, 2023-07-21)"
   xmlns:inkscape="http://www.inkscape.org/namespaces/inkscape"
   xmlns:sodipodi="http://sodipodi.sourceforge.net/DTD/sodipodi-0.dtd"
   xmlns="http://www.w3.org/2000/svg"
   xmlns:svg="http://www.w3.org/2000/svg"><sodipodi:namedview
     id="namedview1"
     pagecolor="#ffffff"
     bordercolor="#666666"
     borderopacity="1.0"
     inkscape:showpageshadow="2"
     inkscape:pageopacity="0.0"
     inkscape:pagecheckerboard="0"
     inkscape:deskcolor="#d1d1d1"
     inkscape:document-units="mm"
     showguides="true"
     inkscape:zoom="0.72782688"
     inkscape:cx="542.0245"
     inkscape:cy="689.03748"
     inkscape:window-width="1920"
     inkscape:window-height="1094"
     inkscape:window-x="-11"
     inkscape:window-y="-11"
     inkscape:window-maximized="1"
     inkscape:current-layer="layer1" /><defs
     id="defs1" /><g
     inkscape:label="Layer 1"
     inkscape:groupmode="layer"
     id="layer1"
     transform="translate(-13.082687,-95.320684)"><path
       style="fill:#000000"
       d="m 103.13873,155.10467 c -0.90935,-0.24519 -1.59194,-1.06091 -1.72903,-2.06627 l -0.0641,-0.46975 -0.60386,-0.0952 c -2.704363,-0.42627 -53.898426,-8.39563 -54.119284,-8.42473 l -0.286407,-0.0377 -0.121742,0.25058 c -0.298399,0.6142 -0.755853,0.90514 -1.423158,0.90514 -0.607952,0 -1.046385,-0.24834 -1.404567,-0.79559 l -0.08815,-0.13469 -12.675365,2.21504 c -6.97145,1.21828 -12.717168,2.22672 -12.768262,2.241 -0.07251,0.0203 -0.09857,0.12392 -0.11874,0.47235 -0.05669,0.97933 -0.691027,1.79052 -1.640131,2.09739 -0.464325,0.15013 -1.247783,0.10048 -1.679215,-0.10642 -0.501013,-0.24027 -0.868531,-0.60548 -1.11849,-1.11147 -0.208121,-0.4213 -0.215543,-0.45715 -0.215543,-1.04133 0,-0.56635 0.01183,-0.62905 0.185152,-0.98104 0.468134,-0.95075 1.499546,-1.49885 2.498503,-1.32774 0.386556,0.0662 0.894234,0.29036 1.106735,0.48863 l 0.127319,0.11879 9.631333,-9.58295 c 5.297233,-5.27063 10.305809,-10.24798 11.130169,-11.06079 1.395696,-1.37613 1.495145,-1.48754 1.445197,-1.61891 -0.0295,-0.0776 -0.05307,-0.30038 -0.05238,-0.49508 0.0027,-0.76511 0.510299,-1.34395 1.26979,-1.44805 0.579595,-0.0794 1.227341,0.28587 1.491176,0.84098 l 0.137007,0.28827 1.712646,-0.004 c 1.855682,-0.004 24.127852,-0.19534 33.592817,-0.28848 3.210911,-0.0316 6.537606,-0.0575 7.392656,-0.0576 l 1.554636,-1.5e-4 0.03892,-0.23034 c 0.176749,-1.04617 1.379136,-1.93692 2.444279,-1.81077 0.207953,0.0246 0.274171,0.0138 0.274171,-0.0447 0,-0.0425 0.605265,-2.67241 1.345034,-5.84432 0.739768,-3.1719 1.345034,-5.78815 1.345034,-5.81388 0,-0.0257 -0.0724,-0.0842 -0.160877,-0.12997 -0.08848,-0.0458 -0.245233,-0.16876 -0.348335,-0.27334 -0.836579,-0.84857 -0.410981,-2.24962 0.763192,-2.51239 0.392653,-0.0879 0.791304,0.002 1.172241,0.26392 l 0.275749,0.18969 9.15092,-4.95186 c 5.033,-2.723531 9.27977,-5.016141 9.43725,-5.094701 l 0.28634,-0.14284 2.3e-4,-0.49583 c 2e-4,-0.42594 0.0216,-0.53617 0.1519,-0.78201 0.28289,-0.53378 0.75108,-0.83957 1.34317,-0.87727 0.89972,-0.0573 1.64154,0.57496 1.72168,1.46739 0.0368,0.40942 -0.0474,0.72486 -0.28784,1.07872 l -0.18833,0.27717 0.46097,0.54344 c 1.19409,1.407711 6.61499,7.669741 6.92164,7.995621 0.0494,0.0525 0.14304,0.0413 0.40759,-0.0489 0.48389,-0.16496 1.18529,-0.1307 1.64471,0.0803 0.87012,0.3997 1.41115,1.42038 1.24336,2.34568 -0.23295,1.2846 -1.46119,2.1088 -2.67804,1.79705 -1.60108,-0.41018 -2.22167,-2.29179 -1.17654,-3.56723 0.11254,-0.13735 0.19091,-0.28106 0.17416,-0.31936 -0.0339,-0.0775 -0.93572,-1.11924 -4.79775,-5.54215 l -2.6295,-3.011391 -0.2401,0.0838 c -0.51816,0.18084 -1.32122,-0.0375 -1.67227,-0.45475 l -0.13491,-0.16033 -9.43299,5.101891 c -5.188149,2.80603 -9.440594,5.1082 -9.449882,5.11591 -0.0093,0.008 0.01364,0.13525 0.05095,0.28341 0.189231,0.75151 -0.370577,1.58001 -1.181311,1.74831 -0.290725,0.0604 -0.313296,0.0774 -0.364866,0.27516 -0.160732,0.61643 -2.699911,11.58509 -2.684408,11.59601 0.01008,0.007 0.138128,0.0815 0.284542,0.16529 0.3375,0.19318 0.69008,0.59231 0.888317,1.00562 0.21798,0.45446 0.253703,1.1997 0.08187,1.70804 -0.06617,0.19576 -0.120307,0.36722 -0.120307,0.38104 0,0.028 0.721655,0.49037 8.086582,5.18115 l 5.138953,3.27304 0.16586,-0.1181 c 0.61582,-0.4385 1.47304,-0.36688 2.00768,0.16776 0.89402,0.89402 0.37806,2.47083 -0.85633,2.61703 -0.23773,0.0282 -0.2975,0.0575 -0.31693,0.1554 -0.0132,0.0664 -0.18023,3.08263 -0.37126,6.70277 -0.19103,3.62015 -0.36066,6.70176 -0.37695,6.84802 l -0.0296,0.26593 0.38964,0.11835 c 1.02499,0.31134 1.70316,1.24287 1.69337,2.32603 -0.009,1.03783 -0.65043,1.92344 -1.63232,2.25502 -0.40519,0.13684 -1.00777,0.15459 -1.42537,0.042 z m -1.52068,-3.32589 c 0.30747,-0.67159 0.82183,-1.10506 1.56577,-1.31955 l 0.44546,-0.12843 0.38244,-7.00348 c 0.24425,-4.4728 0.36201,-7.01076 0.3259,-7.02363 -0.17145,-0.0611 -0.55604,-0.41981 -0.70037,-0.65326 -0.20572,-0.33274 -0.26696,-0.90828 -0.13645,-1.28227 l 0.0833,-0.23861 -4.642086,-2.96359 c -2.55315,-1.62998 -5.453404,-3.48147 -6.445009,-4.11443 -0.991605,-0.63296 -1.884338,-1.19869 -1.983851,-1.25719 l -0.180932,-0.10636 -0.268533,0.23637 c -0.408932,0.35996 -0.803162,0.49327 -1.458697,0.49327 -0.697619,0 -1.07145,-0.13831 -1.535766,-0.56818 -0.366823,-0.33961 -0.598685,-0.71943 -0.713821,-1.16933 l -0.07655,-0.29912 -1.827486,0.005 c -1.93791,0.006 -23.554561,0.19244 -33.507332,0.28941 -3.25813,0.0317 -6.587898,0.0577 -7.399484,0.0578 -1.355911,6e-5 -1.478004,0.008 -1.505122,0.10022 -0.01623,0.0551 -0.09528,0.2343 -0.175671,0.39825 -0.236183,0.48169 -0.691189,0.76077 -1.24035,0.76077 -0.36696,0 -0.629742,-0.0802 -0.885631,-0.27021 l -0.188425,-0.13994 -7.929325,7.88894 c -4.361129,4.33892 -9.357909,9.30552 -11.103956,11.03689 l -3.17463,3.14796 0.13146,0.27337 c 0.1301,0.27055 0.133827,0.27305 0.360401,0.2413 0.27335,-0.0383 25.069212,-4.36662 25.255162,-4.40849 0.107743,-0.0243 0.129491,-0.0685 0.133134,-0.27116 0.01782,-0.99118 1.084407,-1.70962 2.058002,-1.38624 0.515231,0.17113 0.961087,0.67005 1.057352,1.18318 0.03427,0.18269 0.06178,0.20913 0.248029,0.23836 0.115215,0.0181 11.464841,1.78646 25.221393,3.92973 20.304376,3.16342 27.280828,4.25346 29.629484,4.6295 0.0213,0.003 0.1033,-0.13485 0.18222,-0.30724 z"
       id="path3" /></g></svg>
