<?xml version="1.0" encoding="UTF-8" standalone="no"?>
<!-- Created with Inkscape (http://www.inkscape.org/) -->

<svg
   width="41.562241mm"
   height="56.054218mm"
   viewBox="0 0 41.562241 56.054218"
   version="1.1"
   id="svg1"
   xml:space="preserve"
   inkscape:version="1.3 (0e150ed6c4, 2023-07-21)"
   xmlns:inkscape="http://www.inkscape.org/namespaces/inkscape"
   xmlns:sodipodi="http://sodipodi.sourceforge.net/DTD/sodipodi-0.dtd"
   xmlns="http://www.w3.org/2000/svg"
   xmlns:svg="http://www.w3.org/2000/svg"><sodipodi:namedview
     id="namedview1"
     pagecolor="#ffffff"
     bordercolor="#666666"
     borderopacity="1.0"
     inkscape:showpageshadow="2"
     inkscape:pageopacity="0.0"
     inkscape:pagecheckerboard="0"
     inkscape:deskcolor="#d1d1d1"
     inkscape:document-units="mm"
     showguides="true"
     inkscape:zoom="0.72782688"
     inkscape:cx="542.0245"
     inkscape:cy="689.03748"
     inkscape:window-width="1920"
     inkscape:window-height="1094"
     inkscape:window-x="-11"
     inkscape:window-y="-11"
     inkscape:window-maximized="1"
     inkscape:current-layer="layer1" /><defs
     id="defs1" /><g
     inkscape:label="Layer 1"
     inkscape:groupmode="layer"
     id="layer1"
     transform="translate(-154.33165,-20.070556)"><path
       style="fill:#000000"
       d="m 155.38618,76.100574 c -1.01857,-0.26061 -1.39504,-1.43938 -0.70038,-2.19299 0.31091,-0.3373 0.61769,-0.44712 1.14112,-0.40848 l 0.41026,0.0303 0.41384,-1.05756 0.41384,-1.05756 -0.18575,-0.14184 c -0.2881,-0.21997 -0.44235,-0.40102 -0.6042,-0.70917 -0.20391,-0.3882 -0.21287,-1.05269 -0.0199,-1.47507 0.21962,-0.48069 0.71361,-0.89323 1.21364,-1.01354 0.18557,-0.0447 0.18769,-0.0554 0.26827,-1.36926 0.41799,-6.81476 1.39713,-22.03663 1.53639,-23.88478 0.0788,-1.0456 0.0739,-1.2765 -0.0271,-1.2765 -0.18828,0 -0.73011,-0.24986 -0.99376,-0.45826 -0.74027,-0.58516 -1.06529,-1.58391 -0.82089,-2.52251 0.37092,-1.42443 2.04513,-2.199999 3.33743,-1.54605 0.18281,0.0925 0.23205,0.0985 0.29103,0.0356 0.039,-0.0417 0.93414,-1.18634 1.98911,-2.543687 1.05498,-1.357348 3.22172,-4.126561 4.81499,-6.153807 1.59327,-2.027245 2.90543,-3.706039 2.91591,-3.730653 0.0105,-0.02461 -0.0916,-0.168062 -0.22694,-0.318775 -1.15716,-1.289041 -0.76712,-3.251757 0.80014,-4.026337 0.41374,-0.204481 0.4375,-0.209089 1.07844,-0.209089 0.62026,0 0.676,0.0098 1.04046,0.182401 0.70792,0.33532 1.23903,0.964312 1.42852,1.691786 0.18724,0.71888 0.0705,1.389479 -0.36453,2.093317 l -0.11746,0.19005 4.6663,4.105168 c 2.56647,2.257842 6.20043,5.458261 8.07548,7.11204 1.87504,1.653776 3.66859,3.232656 3.98566,3.508606 l 0.57648,0.50174 0.22276,-0.17643 c 1.2501,-0.99009 3.07927,-0.55213 3.77282,0.90333 0.16348,0.34306 0.17573,0.41226 0.17573,0.99283 0,0.58447 -0.0115,0.6484 -0.18163,1.0075 -0.47301,0.99857 -1.59292,1.61445 -2.57687,1.41712 -0.16781,-0.0336 -0.31988,-0.0441 -0.33794,-0.0231 -0.0181,0.0209 -0.75143,2.00386 -1.62973,4.40652 -0.87829,2.40267 -2.38341,6.5146 -3.3447,9.13763 l -1.74781,4.76916 0.27936,0.24934 c 0.52178,0.46573 0.74473,1.16867 0.57828,1.82333 -0.2188,0.86061 -0.91449,1.416 -1.78995,1.42897 -0.56826,0.008 -0.92541,-0.13981 -1.33377,-0.55356 -0.41236,-0.41779 -0.55535,-0.76546 -0.55174,-1.34151 0.005,-0.82698 0.60352,-1.58622 1.40328,-1.78064 0.0936,-0.0228 0.34891,-0.04 0.56733,-0.0384 l 0.39713,0.003 2.76703,-7.55785 c 1.52186,-4.15681 3.03114,-8.27799 3.35397,-9.15817 l 0.58695,-1.60033 -0.28814,-0.21514 c -0.55609,-0.41521 -0.92394,-1.06103 -0.98693,-1.73276 -0.0168,-0.17942 -0.0367,-0.32622 -0.044,-0.32622 -0.0336,0 -22.52213,-1.21017 -25.30485,-1.36172 -3.78001,-0.20587 -3.59999,-0.20301 -3.59999,-0.0572 0,0.19715 -0.20748,0.66807 -0.42474,0.96404 -0.39924,0.54387 -1.19386,0.9655 -1.81963,0.9655 -0.23486,0 -0.2481,0.009 -0.27457,0.18439 -0.0153,0.10141 -0.10684,1.66512 -0.20343,3.47492 -0.0966,1.8098 -0.35348,6.30308 -0.57088,9.98509 -0.61778,10.46338 -0.73452,12.47041 -0.73468,12.63084 -1.2e-4,0.13004 0.0383,0.16207 0.29549,0.24618 0.56813,0.18583 0.99949,0.61958 1.17991,1.18645 0.11498,0.36124 0.0475,0.98093 -0.14549,1.33545 -0.33869,0.62228 -0.92495,0.9353 -1.69052,0.9026 l -0.44556,-0.019 -0.41673,1.07252 -0.41672,1.07252 0.21405,0.24318 c 0.58367,0.66308 0.39482,1.65947 -0.39137,2.06493 -0.24085,0.12421 -0.64503,0.17931 -0.87804,0.11969 z m 35.77771,-35.68762 c 0.032,-0.0917 0.10479,-0.25824 0.16183,-0.37013 l 0.10372,-0.20344 -0.71793,-0.6396 c -0.39486,-0.35178 -1.7519,-1.54399 -3.01563,-2.649354 -1.26374,-1.105364 -4.81242,-4.216346 -7.88595,-6.913295 -3.07354,-2.696949 -5.62994,-4.939174 -5.6809,-4.982723 -0.0805,-0.06883 -0.12003,-0.0606 -0.30211,0.06296 -0.41325,0.280438 -0.80916,0.392576 -1.39234,0.394362 -0.45107,0.0014 -0.59636,-0.02202 -0.89087,-0.143492 l -0.35191,-0.145143 -0.10658,0.119974 c -0.0586,0.06599 -0.35884,0.451864 -0.66716,0.857508 -0.77568,1.020507 -4.77545,6.190196 -7.0789,9.149437 -1.05098,1.35019 -1.91087,2.475444 -1.91087,2.500564 0,0.0251 0.0664,0.10757 0.14752,0.18322 0.20108,0.18747 0.46859,0.7314 0.54373,1.10557 0.0341,0.16966 0.0903,0.30822 0.12504,0.30793 0.0948,-8.2e-4 10.74944,0.57411 19.91978,1.07488 4.46209,0.24366 8.29931,0.44627 8.52716,0.45024 0.40985,0.007 0.41488,0.005 0.47237,-0.15947 z"
       id="path4"
       inkscape:export-filename="libra.svg"
       inkscape:export-xdpi="96"
       inkscape:export-ydpi="96" /></g></svg>
