<?xml version="1.0" encoding="UTF-8" standalone="no"?>
<!-- Created with Inkscape (http://www.inkscape.org/) -->

<svg
   width="82.633987mm"
   height="69.079666mm"
   viewBox="0 0 82.633987 69.079666"
   version="1.1"
   id="svg1"
   xml:space="preserve"
   inkscape:version="1.3 (0e150ed6c4, 2023-07-21)"
   xmlns:inkscape="http://www.inkscape.org/namespaces/inkscape"
   xmlns:sodipodi="http://sodipodi.sourceforge.net/DTD/sodipodi-0.dtd"
   xmlns="http://www.w3.org/2000/svg"
   xmlns:svg="http://www.w3.org/2000/svg"><sodipodi:namedview
     id="namedview1"
     pagecolor="#ffffff"
     bordercolor="#666666"
     borderopacity="1.0"
     inkscape:showpageshadow="2"
     inkscape:pageopacity="0.0"
     inkscape:pagecheckerboard="0"
     inkscape:deskcolor="#d1d1d1"
     inkscape:document-units="mm"
     showguides="true"
     inkscape:zoom="0.72782688"
     inkscape:cx="542.0245"
     inkscape:cy="689.03748"
     inkscape:window-width="1920"
     inkscape:window-height="1094"
     inkscape:window-x="-11"
     inkscape:window-y="-11"
     inkscape:window-maximized="1"
     inkscape:current-layer="layer1" /><defs
     id="defs1" /><g
     inkscape:label="Layer 1"
     inkscape:groupmode="layer"
     id="layer1"
     transform="translate(-27.361466,-164.53024)"><path
       style="fill:#000000"
       d="m 28.98326,233.52175 c -0.74478,-0.27537 -1.27284,-0.9102 -1.39666,-1.67904 -0.127,-0.78858 0.26448,-1.66236 0.93858,-2.09493 0.39656,-0.25448 0.62858,-0.31722 1.1939,-0.32287 l 0.51521,-0.005 3.2764,-8.27295 c 2.87834,-7.26781 3.26632,-8.27859 3.19341,-8.31939 -0.19233,-0.10763 -0.45375,-0.39017 -0.56806,-0.61395 -0.10491,-0.20539 -0.12262,-0.30827 -0.12262,-0.71226 0,-0.42495 0.0136,-0.49532 0.1359,-0.70337 0.29618,-0.50383 0.7879,-0.78777 1.36426,-0.78777 0.19179,0 0.26435,-0.0189 0.26435,-0.0687 0,-0.0378 0.32433,-2.79814 0.72072,-6.13416 0.3964,-3.33601 0.72072,-6.09575 0.72072,-6.13274 0,-0.037 -0.10908,-0.106 -0.24239,-0.15335 -0.5069,-0.18004 -0.86354,-0.69709 -0.86354,-1.25197 0,-0.56386 0.37145,-1.12091 0.84917,-1.27345 0.10021,-0.032 0.1988,-0.0732 0.21908,-0.0915 0.0203,-0.0183 -0.029,-0.58041 -0.10946,-1.24904 -0.0805,-0.66862 -0.27021,-2.3564 -0.4216,-3.75062 -0.44798,-4.12564 -0.86774,-7.93796 -0.89824,-8.15802 l -0.0285,-0.20527 -0.2588,-0.022 c -0.46109,-0.0392 -0.85337,-0.30464 -1.05722,-0.7155 -0.0908,-0.18308 -0.12502,-0.69448 -0.0657,-0.9828 0.0191,-0.0927 -0.82247,-0.73714 -4.974,-3.80933 l -1.26526,-0.93632 -0.17365,0.15247 c -0.30192,0.26509 -0.57689,0.3613 -1.02368,0.35818 -0.31455,-0.002 -0.44957,-0.0278 -0.64616,-0.12266 -0.31691,-0.15287 -0.61554,-0.45151 -0.76841,-0.76842 -0.16997,-0.35235 -0.17307,-0.93526 -0.007,-1.30575 0.14743,-0.3288 0.56207,-0.71731 0.88186,-0.82628 0.25627,-0.0873 0.7502,-0.10517 0.99192,-0.0358 l 0.15338,0.044 1.075,-1.69667 c 0.59125,-0.93317 1.42102,-2.24466 1.84392,-2.91443 l 0.76893,-1.21777 -0.14332,-0.14911 c -0.48752,-0.50724 -0.44569,-1.38906 0.0851,-1.79391 0.82515,-0.62938 1.95074,-0.0886 1.95248,0.9381 6e-4,0.35402 -0.0831,0.56283 -0.33703,0.84038 l -0.19597,0.21424 1.42237,6.10118 1.42238,6.10118 0.22367,0.001 c 0.6432,0.003 1.19428,0.5877 1.19183,1.26378 -10e-4,0.38672 -0.13429,0.68221 -0.43108,0.9586 l -0.22793,0.21226 0.2843,2.62186 c 0.15637,1.44202 0.42738,3.93033 0.60223,5.52958 0.17486,1.59925 0.36364,3.37743 0.41952,3.95152 0.13861,1.42394 0.12178,1.35564 0.34898,1.41681 0.72783,0.19599 1.15978,1.01361 0.9188,1.73914 -0.11747,0.35368 -0.46058,0.70481 -0.8078,0.82671 -0.14353,0.0504 -0.26129,0.11432 -0.26171,0.14207 -4.2e-4,0.0278 -0.33378,2.84636 -0.74081,6.26356 l -0.74004,6.21308 0.24409,0.2154 c 0.31005,0.27359 0.4756,0.55649 0.5284,0.90296 0.14356,0.94197 -0.48292,1.72297 -1.41844,1.76829 -0.1754,0.008 -0.32858,0.0251 -0.3404,0.0369 -0.0118,0.0118 -1.49515,3.74187 -3.2963,8.28899 l -3.27482,8.2675 0.23251,0.15813 c 0.12788,0.087 0.2982,0.22771 0.37849,0.31275 0.0803,0.085 0.16388,0.15461 0.18574,0.15461 0.0323,0 12.812,-6.5944 12.85182,-6.63159 0.007,-0.006 -0.035,-0.14364 -0.0923,-0.30573 -0.34334,-0.97198 0.33819,-2.03148 1.37627,-2.13953 0.55135,-0.0574 1.16375,0.21717 1.46677,0.6576 0.0825,0.11988 0.17686,0.21707 0.20971,0.21598 0.0329,-0.001 2.10634,-0.77926 4.60773,-1.72926 l 4.54798,-1.72727 0.0284,-0.32106 c 0.0352,-0.39774 0.14706,-0.6387 0.40471,-0.87147 0.2771,-0.25035 0.50389,-0.33612 0.88408,-0.33439 0.38785,0.002 0.62442,0.0962 0.91715,0.366 l 0.21457,0.19779 1.68328,-1.10236 c 0.9258,-0.6063 3.07004,-2.00102 4.76497,-3.09938 1.69493,-1.09836 3.3986,-2.2033 3.78592,-2.45542 l 0.70423,-0.45841 -0.11963,-0.26132 c -0.0658,-0.14373 -0.1384,-0.39851 -0.16133,-0.56618 -0.18723,-1.36903 0.83452,-2.54669 2.20952,-2.54669 0.65897,0 1.33801,0.32073 1.70194,0.80387 0.12833,0.17038 0.20858,0.23419 0.27945,0.2222 0.0547,-0.009 2.12363,-0.86759 4.59768,-1.90742 5.97972,-2.51325 10.70981,-4.48943 11.30003,-4.72102 l 0.47968,-0.18823 1.5e-4,-0.30174 c 2e-4,-0.39051 0.18652,-0.77533 0.48363,-0.99884 0.26967,-0.20288 0.67989,-0.3 0.9785,-0.23167 l 0.2173,0.0497 0.51271,-0.62562 c 0.28199,-0.34409 1.31292,-1.59113 2.29096,-2.77119 l 1.77825,-2.14557 -0.0738,-0.17653 c -0.21474,-0.51394 0.0639,-1.17985 0.59725,-1.42731 0.25827,-0.11983 0.68418,-0.12014 0.94717,-6.8e-4 0.38876,0.17658 0.66824,0.62861 0.66824,1.08083 0,0.18905 0.006,0.19606 0.26095,0.2853 0.3799,0.1332 3.34604,1.27011 5.12912,1.96599 0.84588,0.33011 1.55472,0.60021 1.57521,0.60021 0.0205,0 0.10869,-0.13404 0.196,-0.29785 0.45241,-0.84882 1.46147,-1.35213 2.40003,-1.19713 0.89036,0.14704 1.58174,0.73769 1.87291,1.60002 0.0886,0.2624 0.10401,0.40363 0.0889,0.81449 -0.0165,0.44922 -0.0355,0.53292 -0.19766,0.86984 -0.30624,0.63644 -0.73919,1.02521 -1.38339,1.24223 -0.33039,0.1113 -0.8544,0.14601 -1.2201,0.0808 l -0.20002,-0.0357 -0.95655,2.57724 -0.95656,2.57725 0.21893,0.2285 c 0.62836,0.65579 0.42365,1.7092 -0.39895,2.05291 -0.42847,0.17902 -1.02833,0.0595 -1.38381,-0.2757 l -0.14911,-0.14061 -0.79528,0.14272 c -0.4374,0.0785 -1.68996,0.30205 -2.78346,0.4968 -1.0935,0.19475 -2.02529,0.36483 -2.07064,0.37795 -0.07,0.0203 -0.0748,0.0516 -0.0315,0.20834 0.0697,0.25241 0.0206,0.71078 -0.10364,0.96662 -0.1704,0.35103 -0.38735,0.57046 -0.73153,0.7399 -0.96231,0.47374 -2.07234,-0.12528 -2.23212,-1.20456 -0.0552,-0.37279 0.19286,-1.11985 0.41803,-1.25902 0.027,-0.0167 -0.68992,-1.14252 -1.5932,-2.50184 l -1.64233,-2.47147 -0.32231,0.0178 c -0.46206,0.0255 -0.7348,-0.0659 -1.02191,-0.34268 l -0.24069,-0.232 -1.2532,0.53448 c -1.97344,0.84166 -9.06809,3.83548 -12.25213,5.17019 -2.87388,1.2047 -2.89675,1.21541 -2.85802,1.33868 0.0215,0.0683 0.039,0.37155 0.039,0.67379 0,0.53493 -0.005,0.55955 -0.18652,0.92673 -0.44219,0.89424 -1.40562,1.40048 -2.35172,1.23572 -0.43387,-0.0756 -0.7967,-0.24819 -1.10588,-0.52617 l -0.24511,-0.22036 -1.31104,0.8595 c -0.72107,0.47273 -2.82082,1.85401 -4.66611,3.06951 -1.84529,1.21551 -3.72972,2.45452 -4.18762,2.75336 l -0.83255,0.54335 v 0.26971 c 0,0.38909 -0.0892,0.63196 -0.33101,0.90086 -0.28912,0.32158 -0.62944,0.46632 -1.03237,0.43908 -0.37666,-0.0255 -0.63809,-0.1491 -0.90558,-0.42827 l -0.2081,-0.21718 -4.58935,1.74058 -4.58935,1.74058 -0.0299,0.38892 c -0.0504,0.65687 -0.36839,1.11765 -0.95663,1.38626 -0.2606,0.119 -0.33526,0.13058 -0.72278,0.11205 -0.42899,-0.0205 -0.54445,-0.0602 -0.97945,-0.33673 -0.095,-0.0604 -0.66749,0.22528 -6.55788,3.27216 -3.5496,1.83608 -6.46263,3.34715 -6.4734,3.35792 -0.0108,0.0108 0.004,0.063 0.032,0.11606 0.0284,0.0531 0.0745,0.23988 0.10254,0.41517 0.14549,0.91076 -0.34368,1.83589 -1.18558,2.24217 -0.2891,0.13951 -0.38559,0.15983 -0.82446,0.17359 -0.40243,0.0126 -0.54851,-0.003 -0.76737,-0.0844 z m 71.37289,-26.61918 c 1.43523,-0.23166 2.6618,-0.43338 2.72572,-0.44826 0.10866,-0.0253 0.114,-0.0431 0.0822,-0.27431 -0.10406,-0.75657 0.40481,-1.37423 1.18309,-1.43606 l 0.34502,-0.0274 0.96267,-2.53494 c 0.52947,-1.39422 0.96299,-2.55781 0.96338,-2.58577 3.9e-4,-0.028 -0.0775,-0.0929 -0.17306,-0.1444 -0.27475,-0.14797 -0.7099,-0.6399 -0.8715,-0.98522 -0.17472,-0.37336 -0.2616,-0.79869 -0.23878,-1.16892 l 0.0166,-0.26898 -2.63434,-1.03231 c -1.4489,-0.56777 -3.02557,-1.19084 -3.50373,-1.3846 -0.77807,-0.31529 -0.87419,-0.34343 -0.91531,-0.26801 -0.10704,0.19636 -0.39628,0.41005 -0.65802,0.48614 -0.31066,0.0903 -0.52606,0.068 -0.85442,-0.0885 -0.18314,-0.0873 -0.22569,-0.0924 -0.28385,-0.0341 -0.0376,0.0377 -1.05088,1.25405 -2.25167,2.70294 l -2.18324,2.63435 0.13784,0.14911 c 0.40607,0.43929 0.44337,1.08279 0.091,1.56927 l -0.14795,0.20423 0.45952,0.7038 c 0.25274,0.38709 0.97217,1.49784 1.59874,2.46832 0.62657,0.97049 1.15391,1.76419 1.17187,1.76379 0.018,-4.1e-4 0.15308,-0.0423 0.30026,-0.0932 0.53824,-0.18596 1.19679,-0.0256 1.594,0.38807 0.14325,0.14919 0.19669,0.1744 0.32308,0.15242 0.0833,-0.0145 1.32572,-0.21588 2.76094,-0.44754 z M 36.77473,179.25731 c 0.10069,-0.0741 0.18908,-0.13786 0.19641,-0.14174 0.0145,-0.008 -2.81259,-12.15726 -2.83381,-12.17849 -0.007,-0.007 -0.15461,-0.0187 -0.32776,-0.0258 -0.31007,-0.0127 -0.31641,-0.0103 -0.4207,0.15753 -0.0582,0.0937 -0.76343,1.21044 -1.56709,2.48164 -0.80367,1.27119 -1.58311,2.50465 -1.73208,2.741 l -0.27087,0.42974 0.22381,0.23029 c 0.13503,0.13894 0.26446,0.33891 0.32626,0.50409 0.12338,0.32976 0.13567,0.8399 0.0265,1.1011 -0.0615,0.14719 -0.0639,0.19319 -0.0124,0.24236 0.0816,0.078 6.16738,4.59295 6.19094,4.59295 0.01,0 0.10009,-0.0606 0.20078,-0.13468 z"
       id="path5" /></g></svg>
