<?xml version="1.0" encoding="UTF-8" standalone="no"?>
<!-- Created with Inkscape (http://www.inkscape.org/) -->

<svg
   width="57.84227mm"
   height="63.992413mm"
   viewBox="0 0 57.84227 63.992413"
   version="1.1"
   id="svg1"
   xml:space="preserve"
   inkscape:version="1.3 (0e150ed6c4, 2023-07-21)"
   xmlns:inkscape="http://www.inkscape.org/namespaces/inkscape"
   xmlns:sodipodi="http://sodipodi.sourceforge.net/DTD/sodipodi-0.dtd"
   xmlns="http://www.w3.org/2000/svg"
   xmlns:svg="http://www.w3.org/2000/svg"><sodipodi:namedview
     id="namedview1"
     pagecolor="#ffffff"
     bordercolor="#666666"
     borderopacity="1.0"
     inkscape:showpageshadow="2"
     inkscape:pageopacity="0.0"
     inkscape:pagecheckerboard="0"
     inkscape:deskcolor="#d1d1d1"
     inkscape:document-units="mm"
     showguides="true"
     inkscape:zoom="0.72782688"
     inkscape:cx="542.0245"
     inkscape:cy="689.03748"
     inkscape:window-width="1920"
     inkscape:window-height="1094"
     inkscape:window-x="-11"
     inkscape:window-y="-11"
     inkscape:window-maximized="1"
     inkscape:current-layer="layer1" /><defs
     id="defs1" /><g
     inkscape:label="Layer 1"
     inkscape:groupmode="layer"
     id="layer1"
     transform="translate(-143.9486,-194.1725)"><path
       style="fill:#000000;stroke-width:0.65676"
       d="m 163.55906,258.11536 c -0.51621,-0.1432 -0.89962,-0.5635 -1.01408,-1.11168 -0.12291,-0.58857 0.20039,-1.23583 0.76662,-1.53477 0.17003,-0.0898 0.33151,-0.12155 0.62407,-0.12279 l 0.3947,-0.002 -0.12687,-0.24919 c -0.0698,-0.13705 -0.12687,-0.29281 -0.12687,-0.34612 0,-0.065 -0.0603,-0.1078 -0.18325,-0.12991 -0.10078,-0.0181 -2.99044,-0.55379 -6.42144,-1.19035 -3.43101,-0.63656 -6.27425,-1.15739 -6.31831,-1.15739 -0.0441,0 -0.15784,0.11029 -0.25284,0.24507 -0.49501,0.70227 -1.65605,0.72626 -2.21884,0.0458 -0.1755,-0.21218 -0.33659,-0.64826 -0.33659,-0.91116 0,-0.34456 0.1752,-0.74441 0.4439,-1.01312 l 0.26628,-0.26628 -1.36789,-6.16873 c -0.75233,-3.3928 -1.40795,-6.34961 -1.45691,-6.57068 -0.0885,-0.39956 -0.0903,-0.40216 -0.29889,-0.43552 -0.76567,-0.12243 -1.24712,-1.04103 -0.92046,-1.75622 0.11287,-0.24711 0.4168,-0.57125 0.586,-0.62494 0.0763,-0.0242 0.0988,-0.0694 0.0778,-0.15566 -0.0163,-0.0669 -0.0591,-0.29266 -0.0951,-0.50178 -0.0601,-0.3493 -0.0754,-0.37772 -0.18828,-0.3494 -0.19784,0.0497 -0.64843,-0.078 -0.90953,-0.25761 -0.32576,-0.22413 -0.53536,-0.64348 -0.53368,-1.06777 0.002,-0.51787 0.27056,-0.95181 0.73581,-1.18916 l 0.20288,-0.1035 0.0375,-4.41092 c 0.0206,-2.426 0.0374,-5.21231 0.0373,-6.1918 l -2.1e-4,-1.78089 -0.25411,-0.1045 c -0.62289,-0.25617 -0.93328,-1.0356 -0.65445,-1.64342 0.3677,-0.80156 1.33457,-1.00431 1.99925,-0.41923 l 0.23782,0.20934 5.52416,-2.99927 5.52416,-2.99926 -0.0187,-0.36821 c -0.0399,-0.78298 0.46106,-1.34093 1.20681,-1.34416 0.87957,-0.004 1.51179,0.91803 1.16589,1.7 l -0.11138,0.25178 4.2582,3.21004 c 2.34201,1.76553 4.2874,3.22761 4.32308,3.24907 0.0357,0.0215 0.20297,-0.0293 0.37174,-0.11277 0.26517,-0.13117 0.37578,-0.15166 0.81431,-0.15082 0.54836,0.001 0.77909,0.0822 1.22027,0.42932 l 0.20534,0.16156 1.90908,-1.17864 1.90907,-1.17863 0.0335,-0.30247 c 0.0595,-0.53795 0.30986,-0.89186 0.74887,-1.05878 0.13586,-0.0517 0.15711,-0.086 0.13336,-0.21531 -0.0156,-0.0846 -0.22786,-1.88781 -0.47183,-4.00708 l -0.44357,-3.85322 -0.21289,0.034 c -0.32377,0.0517 -0.92591,-0.0664 -1.33638,-0.2623 -0.9831,-0.46917 -1.57936,-1.60241 -1.40991,-2.67968 0.0927,-0.58949 0.33158,-1.0394 0.79189,-1.49156 l 0.39676,-0.38974 -0.83629,-2.26622 -0.8363,-2.26623 -0.39302,-0.032 c -0.42883,-0.0349 -0.64693,-0.12542 -0.89561,-0.37154 -0.70347,-0.69625 -0.3358,-1.94848 0.63232,-2.15357 0.48709,-0.10319 0.93396,0.0538 1.26981,0.44619 0.42146,0.49239 0.39911,1.20731 -0.0529,1.69127 l -0.13467,0.14419 0.85584,2.32486 c 0.70153,1.90574 0.87182,2.31847 0.94457,2.28938 0.0488,-0.0195 0.25152,-0.063 0.45047,-0.0967 1.03972,-0.17593 2.1952,0.4528 2.66085,1.44787 0.57864,1.23653 0.13948,2.63432 -1.04537,3.32724 -0.372,0.21755 -0.37655,0.22312 -0.34487,0.4225 0.0177,0.11113 0.22182,1.85129 0.45371,3.86703 0.23189,2.01575 0.43483,3.74244 0.45099,3.83709 0.023,0.13467 0.073,0.18786 0.23,0.24463 0.50224,0.18161 0.78855,0.65271 0.74789,1.23058 l -0.0229,0.32616 1.21703,1.02082 1.21703,1.02083 0.2227,-0.15215 c 0.31405,-0.21454 0.55022,-0.28262 0.97823,-0.28199 0.45455,6.6e-4 0.83636,0.16397 1.15134,0.49242 l 0.21533,0.22454 0.65863,-0.25876 c 0.36226,-0.14232 1.92723,-0.72911 3.47772,-1.30398 l 2.8191,-1.04522 0.0403,-0.32263 c 0.0811,-0.64946 0.46099,-1.18381 1.05948,-1.4904 0.26861,-0.13761 0.37453,-0.15886 0.79146,-0.15886 0.42767,0 0.52178,0.02 0.84387,0.17968 l 0.36252,0.17968 0.29411,-0.25127 c 0.16176,-0.13819 0.94138,-0.88641 1.73249,-1.66271 l 1.43838,-1.41145 -0.1774,-0.25167 c -0.14333,-0.20336 -0.1818,-0.32083 -0.20033,-0.61172 -0.0285,-0.44743 0.0566,-0.71483 0.32052,-1.0076 0.26791,-0.29716 0.5734,-0.43211 0.98174,-0.43366 0.38124,-10e-4 0.62027,0.0864 0.89731,0.32961 0.65071,0.57132 0.54552,1.65619 -0.20559,2.12039 -0.25183,0.15563 -0.31917,0.17065 -0.76572,0.17065 h -0.4896 l -1.29083,1.16819 c -0.70995,0.64251 -1.51763,1.38036 -1.79485,1.63967 l -0.50402,0.47147 0.12462,0.17501 c 0.34633,0.48637 0.41174,1.23407 0.15677,1.79202 -0.0844,0.18463 -0.22809,0.41297 -0.31937,0.5074 l -0.16597,0.17171 1.02888,2.64424 1.02888,2.64425 0.42289,0.003 c 0.5275,0.004 0.95811,0.19568 1.2918,0.57476 0.31535,0.35826 0.42168,0.71301 0.38585,1.28732 l -0.0287,0.46008 0.45827,0.24509 c 0.25205,0.13481 1.00921,0.54551 1.68257,0.91269 0.67336,0.36717 1.24666,0.66759 1.274,0.66759 0.0273,0 0.0981,-0.0535 0.15714,-0.11877 0.44985,-0.49742 1.39191,-0.45739 1.78789,0.076 0.60555,0.8156 0.0798,1.92329 -0.91209,1.92183 -0.68368,-0.001 -1.19127,-0.49611 -1.19127,-1.16196 0,-0.22565 -0.016,-0.25273 -0.20193,-0.34139 -0.11107,-0.0529 -0.8993,-0.47687 -1.75163,-0.94201 l -1.54969,-0.84571 -0.22776,0.19496 c -0.47537,0.40689 -1.02018,0.54867 -1.54476,0.40201 -0.18397,-0.0514 -0.37543,-0.0984 -0.42547,-0.10439 -0.0768,-0.009 -4.11017,4.09186 -5.70919,5.80501 l -0.44363,0.47531 0.22945,0.3271 c 0.34283,0.48874 0.46947,0.85458 0.50283,1.45264 0.0235,0.41985 0.007,0.58709 -0.089,0.90215 -0.13419,0.44062 -0.37302,0.84839 -0.68884,1.17613 l -0.21734,0.22554 0.69317,1.11777 0.69316,1.11778 0.3894,0.01 c 0.49847,0.0127 0.85204,0.20356 1.07182,0.57858 0.50573,0.86297 -0.084,1.90716 -1.07711,1.90716 -0.54287,0 -0.92095,-0.24832 -1.15114,-0.75609 -0.195,-0.43013 -0.12935,-0.89793 0.18361,-1.30824 l 0.15147,-0.19857 -0.68044,-1.09319 c -0.37424,-0.60126 -0.71077,-1.088 -0.74785,-1.08166 -0.0371,0.007 -0.21778,0.0652 -0.40155,0.1309 -0.46005,0.16434 -1.17614,0.16406 -1.66504,-6.3e-4 -0.74181,-0.2499 -1.28339,-0.73305 -1.62278,-1.4477 -0.17765,-0.37409 -0.20485,-0.49054 -0.22829,-0.97729 -0.0219,-0.45463 -0.005,-0.6223 0.0928,-0.94578 0.49777,-1.63882 2.31815,-2.39847 3.86755,-1.61395 l 0.31421,0.15911 0.71818,-0.75516 c 0.395,-0.41533 1.76251,-1.83535 3.03893,-3.15558 l 2.32076,-2.40043 -0.11139,-0.16915 c -0.20979,-0.31857 -0.29331,-0.56412 -0.31644,-0.93035 -0.0325,-0.51364 0.13611,-0.94784 0.50895,-1.31099 0.18291,-0.17816 0.26998,-0.30547 0.25213,-0.36863 -0.0416,-0.147 -1.95805,-5.04878 -1.98418,-5.07491 -0.0125,-0.0126 -0.10701,0.003 -0.20987,0.0352 -0.38866,0.12066 -0.65685,0.13127 -1.01284,0.0401 -0.59978,-0.15365 -1.01958,-0.48839 -1.26932,-1.0121 -0.0693,-0.14528 -0.12393,-0.19577 -0.1856,-0.17147 -0.38532,0.15178 -4.87879,1.81042 -5.72466,2.1131 l -1.0701,0.38291 0.0177,0.4232 c 0.0214,0.51362 -0.10445,0.84758 -0.45419,1.20486 -0.31938,0.32627 -0.71136,0.48862 -1.17284,0.48575 -0.42506,-0.003 -0.70883,-0.10686 -1.04827,-0.385 -0.13165,-0.10788 -0.26047,-0.19564 -0.28627,-0.19503 -0.0258,6.2e-4 -0.89689,0.50317 -1.93577,1.11677 -1.54268,0.91117 -1.88586,1.13574 -1.8724,1.22524 0.009,0.0603 0.0314,0.27964 0.0497,0.48747 0.119,1.35474 -1.26447,2.32314 -2.51631,1.76136 -0.39282,-0.1763 -0.7443,-0.52609 -0.92146,-0.91706 -0.0889,-0.19611 -0.12001,-0.37918 -0.12158,-0.71472 -0.002,-0.38492 0.0216,-0.49946 0.15967,-0.7811 l 0.1618,-0.33003 -0.13386,-0.12994 c -0.0736,-0.0715 -0.4116,-0.38523 -0.75104,-0.69726 l -0.61719,-0.56731 -0.1722,0.13109 c -0.56203,0.42786 -1.25067,0.54397 -1.86088,0.31378 -0.42308,-0.15959 -0.82543,-0.5298 -1.03119,-0.94877 -0.13336,-0.27157 -0.15574,-0.38673 -0.15574,-0.80142 0,-0.4328 0.0189,-0.5209 0.17772,-0.82888 l 0.17772,-0.34459 -4.31114,-3.24972 -4.31115,-3.24973 -0.22342,0.0894 c -0.40584,0.16239 -0.90996,0.0852 -1.29571,-0.19829 -0.0716,-0.0527 -1.12102,0.49643 -5.6815,2.97271 -4.10766,2.23041 -5.58545,3.0587 -5.56274,3.11788 0.0574,0.14967 -0.091,0.67155 -0.25557,0.89878 -0.10086,0.13924 -0.26899,0.27411 -0.43884,0.35203 l -0.27533,0.12631 -0.0373,2.95987 c -0.0205,1.62793 -0.0373,4.40938 -0.0373,6.18101 v 3.22114 l 0.25055,0.067 c 0.67922,0.18167 1.10174,1.02201 0.84796,1.68651 -0.0556,0.1457 -0.1984,0.37039 -0.31725,0.49933 l -0.21608,0.23442 0.098,0.49603 0.098,0.49602 0.26483,0.0669 c 0.60782,0.15345 1.00383,0.64368 1.00383,1.24266 0,0.4861 -0.35342,1.03757 -0.74981,1.16997 -0.0479,0.016 0.33668,1.84389 1.30854,6.22019 0.75697,3.40865 1.4124,6.35613 1.4565,6.54995 l 0.0802,0.3524 0.29141,5.5e-4 c 0.4921,6.6e-4 0.90723,0.24741 1.22283,0.72603 l 0.0857,0.12988 6.39857,-1.19344 c 3.51922,-0.6564 6.44932,-1.20551 6.51135,-1.22025 0.0924,-0.0219 0.1143,-0.0772 0.12127,-0.30583 0.0282,-0.92464 1.05443,-1.51748 1.9058,-1.10095 0.97372,0.4764 0.97843,1.84866 0.008,2.35912 -0.16769,0.0882 -0.33119,0.12146 -0.59738,0.12146 -0.41423,0 -0.70749,-0.12336 -0.98318,-0.41355 -0.0911,-0.0959 -0.20527,-0.17434 -0.25374,-0.17436 -0.0956,-6e-5 -12.76733,2.35503 -12.92969,2.40301 -0.13999,0.0414 -0.12235,0.17264 0.0282,0.20987 0.20063,0.0496 12.60246,2.349 12.66952,2.349 0.0331,0 0.10088,-0.10169 0.15061,-0.22598 0.11347,-0.2836 0.55944,-0.69007 0.85391,-0.7783 0.38472,-0.11526 0.75644,-0.0845 1.09123,0.0904 0.53589,0.27995 0.82598,0.81043 0.76559,1.40001 -0.0768,0.74995 -0.6553,1.25778 -1.43588,1.26051 l -0.35355,0.001 0.11497,0.22536 c 0.16951,0.33226 0.19781,0.66244 0.0889,1.03707 -0.21496,0.73944 -0.99595,1.17758 -1.73408,0.97283 z m 13.49765,-37.48254 c 1.06349,-0.62406 1.93767,-1.13786 1.94261,-1.14179 0.005,-0.004 -0.0176,-0.14098 -0.05,-0.30457 -0.0472,-0.23777 -0.0404,-0.37285 0.0338,-0.67336 0.051,-0.20675 0.0735,-0.39351 0.05,-0.41503 -0.2008,-0.18379 -2.33432,-1.96905 -2.35318,-1.96905 -0.0135,0 -0.11603,0.0621 -0.22791,0.13804 -0.42026,0.28519 -1.01465,0.23837 -1.42421,-0.1122 l -0.21771,-0.18636 -1.85678,1.14977 c -1.02122,0.63237 -1.87507,1.15692 -1.89744,1.16566 -0.0224,0.009 -0.005,0.11738 0.0398,0.24143 0.10732,0.30076 0.10608,0.86559 -0.003,1.18577 -0.0484,0.14265 -0.0801,0.27731 -0.0705,0.29927 0.01,0.0219 0.36011,0.35849 0.77877,0.74786 l 0.76119,0.70795 0.25458,-0.1321 c 0.66925,-0.34725 1.57732,-0.23122 2.06281,0.26357 0.0899,0.0917 0.18145,0.16736 0.20335,0.16822 0.0219,6.6e-4 0.90995,-0.50902 1.97346,-1.13308 z"
       id="path11" /></g></svg>
