<?xml version="1.0" encoding="UTF-8"?>
<svg width="155.5mm" height="116.49mm" version="1.1" viewBox="0 0 155.5 116.49" xml:space="preserve" xmlns="http://www.w3.org/2000/svg"><g transform="translate(-41.852 -170.47)"><path d="m71.688 286.83c-1.0921-0.29368-2.0011-1.0668-2.505-2.1307-0.26443-0.55824-0.28235-0.65763-0.28235-1.5662 0-0.81452 0.03124-1.0378 0.19477-1.392l0.19477-0.42185-0.59165-0.37915c-0.9331-0.59796-11.163-7.076-11.284-7.1462-0.06307-0.0363-0.25006 0.0495-0.44097 0.2023-0.73968 0.59205-1.5814 0.7997-2.3959 0.59105-1.3203-0.33825-2.0582-1.2683-2.0717-2.6113-0.0056-0.55401 0.0335-0.74408 0.23965-1.1654 0.45026-0.9203 1.3762-1.5062 2.3972-1.5169 0.24254-3e-3 0.54692 0.0246 0.67642 0.0602 0.276 0.076 0.06472 0.43494 2.7648-4.6975 0.95696-1.819 2.5135-4.7541 3.4589-6.5225 1.3906-2.601 1.6998-3.2412 1.6185-3.3514-0.46777-0.63362-0.64288-1.5946-0.41662-2.2864 0.18024-0.55104 0.18937-0.49958-0.11072-0.62388-0.24402-0.10108-0.273-0.0861-0.68351 0.35404-0.81773 0.8767-1.6591 1.2432-2.854 1.2432-0.81541 0-1.4705-0.1782-2.0819-0.5663-0.31043-0.19706-1.0184-0.91076-1.3577-1.3687-0.13003-0.17551-0.20379-0.15316-4.3215 1.31-2.3041 0.81868-4.477 1.5928-4.8286 1.7203-0.6134 0.22236-0.63941 0.24334-0.63941 0.51581 0 1.1847-1.035 2.1675-2.2825 2.1675-0.7124 0-1.202-0.22044-1.6697-0.75182-0.9487-1.0778-0.66085-2.7422 0.59221-3.4242 0.93942-0.51129 2.0196-0.34642 2.7219 0.41544 0.19166 0.20793 0.36689 0.43331 0.3894 0.50085 0.03114 0.0934 1.1894-0.28401 4.8412-1.5776l4.8003-1.7004v-1.0748c0-1.0237 0.01326-1.1027 0.27909-1.6638 0.66823-1.4105 2.0222-2.2772 3.5574-2.2772 1.543 0 2.8927 0.87037 3.5557 2.293 0.33202 0.71237 0.42798 1.8982 0.21296 2.6317l-0.1319 0.44994 0.60757 0.35847 0.28586-0.21803c0.45337-0.3458 0.8892-0.48808 1.4951-0.48808 0.65294 0 1.0215 0.10854 1.521 0.44793 0.65274 0.44354 1.0402 1.2394 1.0319 2.1196-0.01566 1.6628-1.7148 2.8472-3.3086 2.3062l-0.50708-0.1721-0.54272 1.0226c-0.2985 0.56242-1.7139 3.1657-3.1454 5.7851-3.5057 6.415-3.9846 7.3054-3.9848 7.4083-6.6e-5 0.0485 0.13606 0.19686 0.3025 0.32966 0.16754 0.13369 0.42922 0.49862 0.58623 0.81755 0.23604 0.47946 0.28308 0.67565 0.28045 1.1696-0.0017 0.32646-0.04485 0.69894-0.0958 0.82774-0.0926 0.23406-0.09 0.23586 5.2157 3.627 2.9196 1.866 5.6234 3.593 6.0085 3.8376l0.70019 0.44484 0.40224-0.3579c0.98707-0.87827 2.3991-1.1783 3.6941-0.78498 1.0518 0.31946 1.9249 1.1303 2.3566 2.1883l0.20902 0.51236 0.59906-0.0254c0.63328-0.0269 36.389-1.9348 37.067-1.9779l0.3961-0.0252 0.0668-0.46715c0.0367-0.25693 0.12712-0.58381 0.20086-0.72641 0.36677-0.70927 1.1553-1.2704 1.9356-1.3773 0.38215-0.0524 0.39394-0.0635 0.4407-0.41716 0.0264-0.19984 0.38582-4.3718 0.79864-9.271s0.99005-11.606 1.2827-14.903c0.36259-4.0854 0.50205-6.0059 0.4377-6.0273-0.052-0.0173-0.28037-0.15685-0.50761-0.31008-1.2282-0.82817-1.1176-2.7826 0.19681-3.4768 0.14552-0.0769 0.47584-0.18267 0.73405-0.23515l0.46946-0.0954 0.78545-3.1304c0.43199-1.7217 0.78526-3.1503 0.78503-3.1745-2.3e-4 -0.0243-0.16076-0.11807-0.35674-0.20849-0.5686-0.26231-1.3363-1.035-1.658-1.6687-0.86804-1.7102-0.38234-3.7426 1.1674-4.8847 1.1603-0.85516 2.9093-0.97488 4.1064-0.28108 0.24644 0.14283 0.32002 0.15338 0.40972 0.0587 0.0601-0.0635 4.3655-5.2946 9.5675-11.625 5.202-6.3302 9.5163-11.577 9.5873-11.659 0.11472-0.13258 0.10109-0.20621-0.12245-0.66146-0.32818-0.66834-0.35434-1.6889-0.0598-2.3334 0.23844-0.52176 0.75906-1.0432 1.3144-1.3166 0.65087-0.32034 1.658-0.30568 2.3501 0.0342 0.27766 0.13635 0.63606 0.40121 0.79645 0.58858l0.2916 0.34068 1.5848-0.72791c0.87164-0.40035 2.0343-0.94035 2.5838-1.2l0.99898-0.4721-0.0729-0.31462c-0.0401-0.17304-0.0712-0.6539-0.0691-1.0686 3e-3 -0.67651 0.0359-0.82156 0.31616-1.4116 0.55319-1.1649 1.5249-1.8991 2.8137-2.1262 1.3591-0.2394 2.9182 0.46743 3.6316 1.6464 0.15963 0.26378 0.31008 0.48063 0.33433 0.48187 0.0243 1e-3 0.81801-0.21047 1.7639-0.47047l1.7198-0.47272 0.0483-0.60878c0.0618-0.77925 0.32793-1.3297 0.88521-1.8307 1.2485-1.1225 3.2642-0.8159 4.1086 0.62496 0.20082 0.34268 0.26289 0.38957 0.46129 0.34855 0.12609-0.0261 3.8805-0.88531 8.3431-1.9094 6.7382-1.5463 12.775-2.9106 12.879-2.9106 0.013 0 0.0207-0.32742 0.0172-0.7276-7e-3 -0.80599 0.16999-1.3402 0.63883-1.9261l0.25332-0.31655-1.0853-1.9428c-0.59691-1.0686-2.1367-3.7241-3.4217-5.9012-1.285-2.1771-2.4653-4.1888-2.6229-4.4706-0.21446-0.38335-0.32253-0.4983-0.42959-0.45692-0.65377 0.25273-1.5556 0.19289-2.0923-0.13884-0.41745-0.258-0.8705-0.81417-0.9911-1.2167-0.25276-0.84365-0.0107-1.8673 0.57-2.4106 0.77529-0.72531 2.0867-0.807 2.9276-0.18237 0.97925 0.7274 1.2342 2.1068 0.57027 3.0852l-0.22585 0.33281 0.1732 0.30885c3.4542 6.1595 6.911 12.192 7.2148 12.591 0.01 0.0128 0.17259-0.0425 0.36194-0.12271 0.54192-0.22968 1.4967-0.19177 2.0975 0.0833 1.0219 0.46784 1.6423 1.4401 1.6423 2.5739 0 1.5847-1.185 2.7778-2.7594 2.7783l-0.5479 1.6e-4 -0.56545 2.0504c-0.31099 1.1277-0.98104 3.5188-1.489 5.3136-0.50795 1.7948-1.1382 4.0371-1.4004 4.983l-0.47689 1.7198 0.19991 0.13229c1.434 0.94891 1.6363 2.6461 0.44367 3.7212-0.34621 0.3121-1.054 0.60029-1.4743 0.60029-0.53127 0-1.1531-0.28791-1.5894-0.73591-0.69253-0.71113-0.85715-1.6214-0.44906-2.4832 0.36505-0.77087 0.94847-1.1915 1.8363-1.324 0.36672-0.0547 0.42524-0.0943 0.50115-0.33912 0.13493-0.43514 0.57584-2.061 1.0677-3.9372 0.24797-0.94589 0.94886-3.5643 1.5575-5.8187l1.1067-4.0989-0.20747-0.13201c-0.26902-0.17117-0.81498-0.70937-0.92663-0.91346-0.0823-0.15038-0.16583-0.13954-1.492 0.19357-1.5606 0.39201-6.1971 1.4865-14.237 3.3608-2.9347 0.68413-5.4791 1.2816-5.6542 1.3278-0.30065 0.0792-0.32134 0.10829-0.37003 0.51935-0.21963 1.8544-2.1208 2.9577-3.779 2.193-0.50681-0.23371-1.1694-0.82769-1.2672-1.136-0.0296-0.0933-0.11509-0.16969-0.18992-0.16969-0.0748 0-0.87893 0.20293-1.7869 0.45094l-1.6508 0.45094 0.0398 0.68801c0.0907 1.5661-0.72365 2.908-2.1868 3.6035-0.4358 0.20716-0.5881 0.23058-1.4993 0.23058-0.94054 0-1.0527-0.0187-1.5434-0.25709-0.33306-0.16181-0.74999-0.48048-1.125-0.85989-0.32773-0.33155-0.61431-0.60281-0.63685-0.60281-0.0626 0-3.6152 1.6502-4.3748 2.0321l-0.66993 0.33684 0.0405 0.69912c0.0361 0.6241 0.0142 0.75773-0.20466 1.2453-0.29422 0.6556-0.91299 1.2511-1.5121 1.4552-0.63559 0.21657-1.4771 0.18252-2.0471-0.0828-0.26171-0.12183-0.48408-0.21074-0.49416-0.19758-0.0101 0.0132-4.3501 5.2913-9.6445 11.729s-9.6262 11.726-9.6262 11.752c0 0.0256 0.14282 0.24533 0.31738 0.4883 1.3448 1.8719 0.76731 4.4972-1.2434 5.6524-0.55936 0.32135-1.6025 0.55932-2.1616 0.49311l-0.42163-0.0499-0.67912 2.7949c-0.37351 1.5372-0.72135 2.97-0.77298 3.184-0.0933 0.38662-0.0918 0.39075 0.24164 0.65821 0.68091 0.54625 0.95 1.6904 0.58338 2.4805-0.28159 0.60691-1.0578 1.1906-1.5833 1.1906-0.21123 0-0.18164-0.25112-0.63393 5.3799-0.19676 2.4496-0.7527 9.0964-1.2354 14.771s-0.87768 10.363-0.87768 10.418c0 0.0558 0.11396 0.1486 0.25324 0.2063 0.36691 0.15197 0.94592 0.75767 1.1747 1.2288 0.29641 0.6105 0.27772 1.4872-0.0458 2.1484-0.28247 0.57736-0.61672 0.88887-1.2817 1.1945-0.40301 0.18525-0.56584 0.21128-1.1024 0.17624-0.39562-0.0258-0.76067-0.10908-0.98235-0.22398-0.41568-0.21547-0.93427-0.73912-1.1437-1.1549-0.14079-0.27946-0.16901-0.29299-0.51684-0.24777-0.20236 0.0263-8.7718 0.49585-19.043 1.0434l-18.675 0.99558v0.26995c0 0.14847-0.06121 0.50649-0.13603 0.79559-0.51922 2.0064-2.6373 3.2557-4.6172 2.7232z"/></g></svg>
