<?xml version="1.0" encoding="UTF-8" standalone="no"?>
<!-- Created with Inkscape (http://www.inkscape.org/) -->

<svg
   width="47.76128mm"
   height="28.129713mm"
   viewBox="0 0 47.76128 28.129713"
   version="1.1"
   id="svg1"
   xml:space="preserve"
   inkscape:version="1.3 (0e150ed6c4, 2023-07-21)"
   xmlns:inkscape="http://www.inkscape.org/namespaces/inkscape"
   xmlns:sodipodi="http://sodipodi.sourceforge.net/DTD/sodipodi-0.dtd"
   xmlns="http://www.w3.org/2000/svg"
   xmlns:svg="http://www.w3.org/2000/svg"><sodipodi:namedview
     id="namedview1"
     pagecolor="#ffffff"
     bordercolor="#666666"
     borderopacity="1.0"
     inkscape:showpageshadow="2"
     inkscape:pageopacity="0.0"
     inkscape:pagecheckerboard="0"
     inkscape:deskcolor="#d1d1d1"
     inkscape:document-units="mm"
     showguides="true"
     inkscape:zoom="0.72782688"
     inkscape:cx="542.0245"
     inkscape:cy="689.03748"
     inkscape:window-width="1920"
     inkscape:window-height="1094"
     inkscape:window-x="-11"
     inkscape:window-y="-11"
     inkscape:window-maximized="1"
     inkscape:current-layer="layer1" /><defs
     id="defs1" /><g
     inkscape:label="Layer 1"
     inkscape:groupmode="layer"
     id="layer1"
     transform="translate(-165.3118,-10.573871)"><path
       style="fill:#000000"
       d="m 211.9476,38.609792 c -0.18956,-0.09346 -0.44817,-0.499184 -0.44846,-0.703562 -9e-5,-0.06438 -1.51556,-0.516347 -5.60541,-1.671732 l -5.60528,-1.583494 -0.12143,0.154373 c -0.51012,0.648517 -1.49477,0.290338 -1.49477,-0.543744 v -0.301186 l -2.7069,-1.586042 -2.70691,-1.586042 -0.1687,0.119658 c -0.3719,0.263777 -0.94468,0.102742 -1.1302,-0.317749 -0.0977,-0.221481 -0.13161,-0.247055 -0.32785,-0.247386 -0.12037,-2.03e-4 -0.44725,-0.01815 -0.7264,-0.03988 -0.3964,-0.03086 -0.50755,-0.02194 -0.50755,0.0407 0,0.156724 -0.30958,0.48282 -0.52625,0.554329 -0.46248,0.152631 -0.95279,-0.108475 -1.0792,-0.574697 -0.0383,-0.141311 -0.0809,-0.295388 -0.0947,-0.342395 -0.0151,-0.05129 -0.1174,0.04666 -0.25595,0.24498 -0.17594,0.251825 -0.32565,0.379768 -0.62923,0.537743 -0.36814,0.191564 -0.43173,0.20522 -0.83789,0.17994 -0.92834,-0.05778 -1.55547,-0.724321 -1.55855,-1.656461 l -10e-4,-0.410142 -1.86099,-0.616956 c -3.66233,-1.214133 -16.27491,-5.360773 -16.30553,-5.360773 -0.0172,0 -0.12536,0.09412 -0.2404,0.209164 -0.41249,0.412491 -1.01862,0.430429 -1.4074,0.04165 -0.61724,-0.617233 -0.17992,-1.665785 0.69474,-1.665785 0.52497,0 0.96778,0.427292 0.97003,0.936046 l 0.001,0.22856 0.93819,0.301173 c 0.516,0.165644 4.61868,1.513817 9.11706,2.995939 7.59706,2.503068 8.1835,2.68674 8.24375,2.581924 0.45865,-0.797883 1.45225,-1.123229 2.23662,-0.732363 0.598,0.297997 0.93503,0.865451 0.93503,1.574301 0,0.19699 0.0111,0.358164 0.0246,0.358164 0.0135,0 0.11735,-0.09259 0.2307,-0.205762 0.2781,-0.27765 0.57914,-0.331244 0.94688,-0.168574 0.22259,0.09846 0.30329,0.178146 0.39858,0.393573 l 0.11949,0.270115 0.47184,0.03988 c 0.74241,0.06276 1.00696,0.0515 1.00696,-0.04286 0,-0.04551 0.0554,-0.132854 0.12304,-0.194096 0.0677,-0.06124 0.12305,-0.144099 0.12305,-0.184124 0,-0.04002 -0.12345,-0.347181 -0.27433,-0.68257 l -0.27432,-0.609798 -0.27238,-0.03281 c -0.14981,-0.01805 -0.31887,-0.0714 -0.3757,-0.11856 -0.18806,-0.15608 -0.29366,-0.435433 -0.25398,-0.671899 0.0205,-0.122417 0.0439,-0.267562 0.0519,-0.322545 0.008,-0.05498 -0.20198,-0.33865 -0.46665,-0.630371 -0.43142,-0.475498 -0.49444,-0.523333 -0.60884,-0.46211 -0.0702,0.03756 -0.2541,0.05403 -0.4087,0.03661 -0.22401,-0.02525 -0.32328,-0.0777 -0.48874,-0.258261 -0.18752,-0.204615 -0.20489,-0.254396 -0.17921,-0.513605 0.0156,-0.157866 0.0478,-0.344425 0.0714,-0.414576 0.0357,-0.105891 -0.27893,-0.481927 -1.85308,-2.214737 l -1.89609,-2.08719 -0.26076,0.01888 c -0.33336,0.02414 -0.56977,-0.181678 -0.56977,-0.496044 v -0.205911 l -6.18614,-3.583839 -6.18614,-3.58384 -0.22289,0.195703 c -0.30369,0.266639 -0.56486,0.364871 -0.97009,0.364871 -0.8196,0 -1.40456,-0.589556 -1.40395,-1.414971 5.8e-4,-0.77414 0.61395,-1.374754 1.40395,-1.374754 0.9502,0 1.58007,0.833239 1.36474,1.805398 l -0.0477,0.215321 6.17025,3.574805 c 6.11902,3.54512 6.17172,3.574066 6.34691,3.485842 0.21946,-0.110519 0.53413,-0.05982 0.68868,0.110965 0.10586,0.116977 0.15471,0.484768 0.086,0.647749 -0.0157,0.03728 0.82872,1.013811 1.87651,2.17007 1.39738,1.542038 1.93021,2.091201 1.99941,2.060681 0.23828,-0.105083 0.50178,-0.09287 0.74633,0.0346 l 0.25372,0.132248 0.90756,-0.571636 c 9.87754,-6.221499 10.45353,-6.59523 10.40992,-6.754444 -0.12041,-0.439615 0.0475,-0.904746 0.41632,-1.1533 0.15371,-0.103582 0.29444,-0.13863 0.55664,-0.13863 0.44609,0 0.71461,0.167368 0.91431,0.569879 0.21154,0.426389 0.14877,0.782536 -0.19929,1.130591 -0.39446,0.394468 -0.93484,0.437637 -1.32878,0.106155 l -0.18674,-0.157135 -3.76776,2.382121 c -2.07227,1.310166 -4.63118,2.925373 -5.68647,3.589349 l -1.91871,1.207229 0.0329,0.218521 c 0.0192,0.127586 -0.005,0.309271 -0.0583,0.436598 l -0.0911,0.218078 0.48601,0.527809 0.486,0.527809 0.32207,-0.03268 c 0.27191,-0.02759 0.34957,-0.01091 0.4987,0.10715 0.35354,0.279878 0.40918,0.684613 0.14587,1.061142 l -0.12095,0.172961 0.29378,0.642185 0.29378,0.642186 h 0.23693 c 0.184,0 0.28827,0.04705 0.46673,0.210594 0.20587,0.188673 0.2298,0.242191 0.2298,0.514125 v 0.303531 l 2.703,1.585393 2.703,1.585394 0.25611,-0.139907 c 0.5301,-0.289578 1.10876,-0.04126 1.27494,0.547096 l 0.0784,0.277628 5.5848,1.578633 5.58479,1.578634 0.20629,-0.206291 c 0.17929,-0.179285 0.24675,-0.206291 0.51533,-0.206291 0.24094,0 0.34983,0.03433 0.49421,0.155814 0.44206,0.371972 0.36768,1.042521 -0.1425,1.284617 -0.25771,0.122294 -0.44026,0.121591 -0.69227,-0.0027 z m -27.93495,-3.968019 c -0.45121,-0.130126 -0.59038,-0.87689 -0.25561,-1.371543 0.3277,-0.484212 0.93377,-0.712127 1.33792,-0.503131 0.2504,0.129486 0.33287,0.292615 0.37637,0.74446 l 0.0355,0.369123 0.12781,-0.216222 c 0.0703,-0.118922 0.17955,-0.351735 0.24281,-0.517362 0.0633,-0.165626 0.12562,-0.269278 0.1386,-0.230337 0.0379,0.113647 -0.0965,0.457747 -0.33078,0.84674 -0.17598,0.292247 -0.21019,0.400193 -0.1792,0.56541 0.0499,0.266141 0.19826,0.322121 0.34563,0.130438 0.0921,-0.119854 0.11406,-0.127805 0.11517,-0.04178 0.002,0.144788 -0.26937,0.313631 -0.42466,0.264346 -0.0685,-0.02172 -0.17961,-0.109622 -0.24702,-0.195327 l -0.12258,-0.155829 -0.17125,0.121723 c -0.16149,0.114783 -0.59004,0.26425 -0.72494,0.252836 -0.0338,-0.0029 -0.15254,-0.03146 -0.2638,-0.06354 z m 0.83617,-0.212909 0.31968,-0.159305 v -0.544176 c 0,-0.628434 -0.0602,-0.833796 -0.27283,-0.930677 -0.33851,-0.154236 -0.74288,0.199209 -0.92089,0.80492 -0.13286,0.452061 -0.12531,0.715362 0.0248,0.865501 0.1687,0.1687 0.46313,0.156128 0.84921,-0.03626 z"
       id="path12" /></g></svg>
