<?xml version="1.0" encoding="UTF-8" standalone="no"?>
<!-- Created with Inkscape (http://www.inkscape.org/) -->

<svg
   width="66.713264mm"
   height="56.072628mm"
   viewBox="0 0 66.713264 56.072628"
   version="1.1"
   id="svg1"
   xml:space="preserve"
   inkscape:version="1.3 (0e150ed6c4, 2023-07-21)"
   xmlns:inkscape="http://www.inkscape.org/namespaces/inkscape"
   xmlns:sodipodi="http://sodipodi.sourceforge.net/DTD/sodipodi-0.dtd"
   xmlns="http://www.w3.org/2000/svg"
   xmlns:svg="http://www.w3.org/2000/svg"><sodipodi:namedview
     id="namedview1"
     pagecolor="#ffffff"
     bordercolor="#666666"
     borderopacity="1.0"
     inkscape:showpageshadow="2"
     inkscape:pageopacity="0.0"
     inkscape:pagecheckerboard="0"
     inkscape:deskcolor="#d1d1d1"
     inkscape:document-units="mm"
     showguides="true"
     inkscape:zoom="0.72782688"
     inkscape:cx="542.0245"
     inkscape:cy="689.03748"
     inkscape:window-width="1920"
     inkscape:window-height="1094"
     inkscape:window-x="-11"
     inkscape:window-y="-11"
     inkscape:window-maximized="1"
     inkscape:current-layer="layer1" /><defs
     id="defs1" /><g
     inkscape:label="Layer 1"
     inkscape:groupmode="layer"
     id="layer1"
     transform="translate(-123.05063,-189.77986)"><path
       style="fill:#000000"
       d="m 129.36417,245.7839 c -0.3487,-0.11338 -0.72332,-0.39732 -0.94359,-0.71516 -0.19611,-0.28298 -0.22829,-0.41303 -0.22829,-0.92252 0,-0.71955 0.17172,-1.06247 0.71614,-1.43006 0.31296,-0.21131 0.45177,-0.25072 0.87426,-0.24818 0.27623,0.002 0.61524,0.0296 0.75335,0.0621 0.24294,0.0571 0.26746,0.0339 0.75335,-0.71409 0.27622,-0.42523 0.53205,-0.811 0.56849,-0.85727 0.0364,-0.0463 1.21693,-1.81682 2.62331,-3.93456 1.40637,-2.11775 2.60993,-3.92578 2.67458,-4.01786 0.49276,-0.70182 0.78819,-1.1438 0.78819,-1.17916 0,-0.0229 0.1544,-0.25072 0.34311,-0.50617 0.24359,-0.32973 0.33197,-0.52279 0.30468,-0.66554 -0.0496,-0.2593 0.12668,-0.4034 0.40728,-0.33298 0.14009,0.0352 0.2699,0.0122 0.35683,-0.0631 0.16661,-0.14433 3.43571,-2.0661 3.51461,-2.0661 0.0309,0 0.25196,-0.13183 0.49123,-0.29297 0.23927,-0.16113 0.45238,-0.29297 0.47359,-0.29297 0.0382,0 0.2552,-0.12465 2.68847,-1.54439 0.69057,-0.40292 1.42508,-0.82815 1.63225,-0.94494 0.79742,-0.44955 1.39291,-0.79181 1.68467,-0.96827 0.16694,-0.10097 1.34405,-0.7817 2.61579,-1.51275 l 2.31226,-1.32918 v -0.4539 c 0,-0.31386 0.0564,-0.55189 0.18277,-0.77147 l 0.18277,-0.31757 -0.22671,-0.2431 c -0.12469,-0.13371 -0.32936,-0.3929 -0.45481,-0.576 -0.12546,-0.18309 -0.60545,-0.8611 -1.06665,-1.50669 -0.4612,-0.64559 -0.89438,-1.25485 -0.96261,-1.35391 -0.50004,-0.72594 -3.54657,-4.92675 -4.09799,-5.65065 -0.0932,-0.12237 -0.16949,-0.28246 -0.16949,-0.35574 0,-0.1576 0.0273,-0.15341 -0.33076,-0.0507 -0.36417,0.10444 -0.8275,-0.0123 -1.04175,-0.26256 -0.36414,-0.42529 -0.21168,-1.32141 0.25501,-1.49884 0.15976,-0.0607 0.1982,-0.11799 0.15216,-0.2266 -0.0339,-0.0799 -0.0897,-0.29599 -0.12415,-0.48014 -0.0344,-0.18415 -0.12798,-0.61733 -0.20794,-0.96261 -0.08,-0.34529 -0.17488,-0.77846 -0.21092,-0.96261 -0.0927,-0.4737 -0.29751,-1.43815 -0.53327,-2.51116 -0.11127,-0.50642 -0.33603,-1.54227 -0.49948,-2.3019 -0.16345,-0.75962 -0.39168,-1.81431 -0.50717,-2.34374 -0.21654,-0.99261 -1.06506,-4.9286 -1.25387,-5.81627 l -0.10656,-0.50099 -0.36959,-0.0714 c -0.97163,-0.18783 -1.30259,-1.33029 -0.58463,-2.01813 0.532,-0.5097 1.53896,-0.32143 1.81505,0.33935 0.23166,0.55444 0.0794,1.20113 -0.34793,1.47791 -0.31166,0.20184 -0.35184,0.37676 -0.20663,0.89946 0.11082,0.39886 0.40972,1.74858 0.54644,2.46746 0.0942,0.49518 0.35581,1.70071 0.62674,2.88784 0.0368,0.16113 0.18358,0.85797 0.32623,1.54854 0.14266,0.69057 0.33502,1.57576 0.42747,1.96708 0.17456,0.73884 0.42031,1.87835 0.62279,2.88783 0.0646,0.32226 0.25212,1.18286 0.41662,1.91242 0.1645,0.72957 0.29928,1.38875 0.29952,1.46485 2.8e-4,0.0909 0.13614,0.18237 0.39614,0.2667 0.2752,0.0893 0.45352,0.21412 0.58551,0.40998 0.23131,0.34324 0.23894,0.58572 0.0312,0.99285 l -0.15854,0.31078 0.435,0.60143 c 0.23925,0.33079 0.52593,0.72007 0.63705,0.86507 0.11112,0.145 0.25981,0.35107 0.33041,0.45793 0.0706,0.10686 0.78754,1.10499 1.5932,2.21807 0.80566,1.11307 1.72852,2.39307 2.05078,2.84444 0.32227,0.45137 0.88236,1.22896 1.24466,1.72799 0.36229,0.49903 0.67392,0.94694 0.6925,0.99536 0.0209,0.0544 0.25629,0.0755 0.61677,0.0551 0.5707,-0.0323 0.58873,-0.027 0.85604,0.2505 0.15019,0.15589 0.31073,0.35073 0.35677,0.43298 0.0797,0.14248 0.14891,0.13929 1.46484,-0.0675 0.75963,-0.11935 2.04032,-0.30989 2.84598,-0.42342 1.57101,-0.22138 2.84155,-0.41155 4.99878,-0.74823 0.74667,-0.11653 1.48761,-0.21187 1.64652,-0.21187 0.25295,0 0.2958,-0.0313 0.34407,-0.25102 0.10721,-0.48814 0.73277,-0.66538 1.16061,-0.32885 0.42708,0.33595 0.23084,1.02933 -0.34028,1.20235 -0.22576,0.0684 -0.65431,-0.13941 -0.78285,-0.37958 -0.0704,-0.13153 -0.14347,-0.16125 -0.29993,-0.12198 -0.20185,0.0507 -0.92608,0.16562 -2.70907,0.43001 -1.76134,0.26118 -1.98147,0.29322 -2.80412,0.40813 -0.46038,0.0643 -1.4774,0.21644 -2.26005,0.33809 -0.78264,0.12164 -1.70549,0.25803 -2.05078,0.30307 -1.03382,0.13487 -1.10524,0.16577 -1.20719,0.52232 -0.1871,0.65444 -0.78274,0.98823 -1.43671,0.80513 -0.20322,-0.0569 -0.36949,-0.12716 -0.36949,-0.15614 0,-0.029 -0.0754,-0.0998 -0.16752,-0.15732 -0.14468,-0.0904 -0.22743,-0.0662 -0.60686,0.17671 -0.24164,0.15474 -0.70301,0.43405 -1.02528,0.62069 -0.64423,0.37313 -3.20415,1.85434 -4.52008,2.61541 -0.46038,0.26626 -1.51507,0.87905 -2.34375,1.36175 -0.82868,0.48271 -1.71387,0.98978 -1.96708,1.12683 -0.2532,0.13706 -0.71529,0.40532 -1.02686,0.59614 -0.31157,0.19082 -0.58103,0.34695 -0.59881,0.34695 -0.0178,0 -0.49738,0.27648 -1.06577,0.6144 -1.23207,0.73249 -1.74244,1.02514 -2.24646,1.28815 -0.20677,0.1079 -0.40364,0.27103 -0.43748,0.36251 -0.0338,0.0915 -0.13574,0.19378 -0.22644,0.22734 -0.13926,0.0515 -1.21275,1.6056 -3.71342,5.3759 -0.25955,0.39132 -0.58917,0.881 -0.7325,1.08817 -0.14333,0.20717 -0.41785,0.61841 -0.61005,0.91387 -0.78325,1.20404 -1.06207,1.62225 -2.00945,3.01396 l -0.99035,1.45484 0.17367,0.21742 c 0.35947,0.45004 0.4607,0.71649 0.46423,1.22189 0.003,0.41702 -0.0391,0.57002 -0.2476,0.90182 -0.39961,0.63588 -1.24788,0.96326 -1.92522,0.74301 z m 7.86829,-16.38467 c -0.59849,-0.48388 -1.16375,-0.94377 -1.25614,-1.02198 -0.0924,-0.0782 -0.43139,-0.34749 -0.75335,-0.59841 -0.32195,-0.25092 -0.81559,-0.64643 -1.09697,-0.8789 -0.28138,-0.23248 -0.75222,-0.61045 -1.04631,-0.83994 -0.2941,-0.22949 -0.55356,-0.43786 -0.57658,-0.46304 -0.0329,-0.0361 -2.48102,-1.99027 -3.98601,-3.18192 -1.78346,-1.41213 -3.60286,-2.89689 -3.65536,-2.98304 -0.0522,-0.0856 -0.13094,-0.0736 -0.37544,0.0574 -0.17016,0.0912 -0.37024,0.16582 -0.44462,0.16582 -0.8036,0 -1.29027,-0.97821 -0.78526,-1.57839 0.45292,-0.53827 1.18279,-0.49696 1.5477,0.0876 0.13801,0.22109 0.16335,0.36165 0.12539,0.6956 l -0.0476,0.41853 0.60886,0.47353 c 0.33487,0.26043 0.71743,0.56177 0.85013,0.66964 0.1327,0.10786 0.56587,0.45534 0.96261,0.77217 0.39674,0.31683 0.87201,0.69829 1.05616,0.84768 0.18415,0.1494 1.01284,0.81117 1.84152,1.4706 0.82868,0.65943 1.52553,1.21974 1.54855,1.24513 0.023,0.0254 0.30552,0.25584 0.62779,0.51209 0.32226,0.25625 1.16978,0.93265 1.88336,1.5031 4.55228,3.63915 4.40755,3.51732 4.16928,3.50989 -0.0603,-0.002 -0.59925,-0.39932 -1.19774,-0.8832 z m 32.51951,-10.87286 c 0,-0.0705 0.57525,-0.2904 2.3019,-0.88009 0.92076,-0.31446 2.22028,-0.76086 2.88783,-0.99199 2.92106,-1.01138 5.11293,-1.76616 5.73381,-1.97447 0.36831,-0.12356 0.74498,-0.25887 0.83706,-0.30068 0.0921,-0.0418 0.67592,-0.24473 1.29743,-0.45092 0.62151,-0.2062 1.44988,-0.48983 1.84083,-0.63028 0.39094,-0.14046 0.77703,-0.25538 0.85797,-0.25538 0.10874,0 0.14718,-0.0677 0.14718,-0.25913 0,-0.29889 0.22804,-0.72833 0.41571,-0.78284 0.56831,-0.16504 0.72749,-0.1457 0.99401,0.12082 0.21429,0.21429 0.26438,0.33222 0.26438,0.62239 0,0.81423 -0.91873,1.17308 -1.47276,0.57526 -0.18532,-0.19995 -0.22283,-0.20957 -0.43232,-0.11088 -0.12617,0.0594 -0.38007,0.15628 -0.56422,0.2152 -0.18415,0.0589 -1.14467,0.38866 -2.13449,0.73275 -0.98981,0.34409 -2.0445,0.70783 -2.34375,0.80832 -0.29924,0.10049 -0.61941,0.21474 -0.71149,0.25389 -0.0921,0.0392 -0.39342,0.1456 -0.66964,0.23656 -0.27623,0.091 -1.38742,0.47293 -2.46931,0.84883 -1.08189,0.37591 -2.23074,0.77261 -2.55301,0.88156 -0.32227,0.10895 -1.35812,0.46431 -2.30189,0.78969 -1.62698,0.56092 -1.92523,0.64634 -1.92523,0.55139 z m 16.95256,-7.09514 c 0.0324,-0.19566 0.14531,-0.71359 0.25104,-1.15095 0.10572,-0.43736 0.25442,-1.0777 0.33044,-1.42299 0.076,-0.34528 0.17266,-0.75962 0.21476,-0.92076 0.0734,-0.2811 0.42962,-1.84951 0.76035,-3.34821 0.43299,-1.96205 0.60296,-2.64407 0.67797,-2.72042 0.1374,-0.13984 0.0324,0.46536 -0.43581,2.51116 -0.24232,1.05887 -0.488,2.13239 -0.54597,2.3856 -0.058,0.25321 -0.26547,1.15722 -0.46113,2.00893 -0.19566,0.8517 -0.3842,1.68038 -0.41896,1.84151 -0.20227,0.9374 -0.27177,1.17188 -0.34737,1.17188 -0.0524,0 -0.0619,-0.13419 -0.0253,-0.35575 z m 2.07485,-9.89029 c -0.26559,-0.22845 -0.29722,-0.63366 -0.0691,-0.88569 0.21796,-0.24084 0.74305,-0.23079 0.91699,0.0175 0.2784,0.39747 0.11682,0.84693 -0.35259,0.98076 -0.2312,0.0659 -0.30801,0.0485 -0.49526,-0.11262 z"
       id="path9" /></g></svg>
